<svg width="451" height="451" viewBox="0 0 451 451" fill="none" xmlns="http://www.w3.org/2000/svg">
<rect width="451" height="451" rx="88" fill="#3671E9"/>
<path d="M153.126 259.342C171.258 259.342 186.889 259.03 202.364 259.498C226.592 260.277 247.069 278.346 250.195 300.778C253.478 324.767 239.566 346.887 216.589 353.741C212.993 354.832 209.242 355.611 205.647 355.611C166.256 355.766 126.866 355.766 85.1306 355.766C107.014 323.521 127.96 292.522 150.625 259.186C134.994 259.186 121.707 260.121 108.421 259.03C87.6316 257.317 72.313 246.568 65.1227 226.785C58.245 207.781 62.9343 190.645 77.1587 176.47C86.5374 166.968 98.4171 162.918 111.86 162.918C143.747 163.073 175.635 162.918 207.522 163.385C214.713 163.541 219.089 161.36 222.997 155.129C235.658 135.346 248.945 116.03 263.013 95C305.217 182.234 346.64 268.221 389 355.922C362.583 355.922 338.042 356.234 313.502 355.611C310.844 355.611 307.249 350.937 305.686 347.822C284.584 305.295 263.482 262.769 242.849 220.087C236.753 207.469 228.781 197.811 213.931 196.721C199.082 195.63 189.703 204.354 182.2 216.037C173.29 229.901 163.755 243.609 153.126 259.342Z" fill="white"/>
</svg>
