<svg width="895" height="313" viewBox="0 0 895 313" fill="none" xmlns="http://www.w3.org/2000/svg">
<g clip-path="url(#clip0_17_8)">
<path d="M82.2316 148.675C98.5543 148.675 112.645 148.357 126.673 148.739C148.479 149.376 167.097 165.747 169.838 186.067C172.771 207.725 160.211 227.726 139.552 234.033C136.364 234.988 132.921 235.753 129.606 235.816C94.0911 235.944 58.5765 235.88 20.8304 235.88C40.5961 206.642 59.5329 178.678 79.9362 148.548C65.8452 148.548 53.7945 149.312 41.9351 148.357C23.1257 146.828 9.3535 137.082 2.84994 119.182C-3.39858 101.983 0.809604 86.5042 13.6892 73.6368C22.2331 65.1011 32.8811 61.3427 44.9318 61.4064C73.6877 61.5338 102.444 61.4065 131.2 61.8524C137.703 61.9798 141.656 60.0051 145.163 54.4632C156.576 36.5636 168.627 19.0462 181.315 0C219.38 78.9239 256.744 156.574 295 235.944C271.217 235.944 249.093 236.198 226.968 235.625C224.545 235.561 221.421 231.421 219.954 228.554C200.89 190.144 181.889 151.669 163.271 113.067C157.788 101.665 150.583 92.8741 137.193 91.9823C123.74 91.0268 115.387 98.8619 108.628 109.5C100.531 122.049 91.8594 134.406 82.2316 148.675Z" fill="url(#paint0_linear_17_8)"/>
<path d="M394.379 197.367V236H371.199C354.681 236 341.803 232.004 332.567 224.011C323.331 215.84 318.712 202.607 318.712 184.312V125.164H300.595V87.3311H318.712V51.0964H364.272V87.3311H394.113V125.164H364.272V184.845C364.272 189.286 365.338 192.483 367.469 194.437C369.601 196.39 373.153 197.367 378.127 197.367H394.379ZM442.67 71.8781C434.677 71.8781 428.105 69.569 422.954 64.9508C417.98 60.1551 415.494 54.2936 415.494 47.3664C415.494 40.2615 417.98 34.4 422.954 29.7818C428.105 24.9861 434.677 22.5882 442.67 22.5882C450.485 22.5882 456.879 24.9861 461.853 29.7818C467.004 34.4 469.579 40.2615 469.579 47.3664C469.579 54.2936 467.004 60.1551 461.853 64.9508C456.879 69.569 450.485 71.8781 442.67 71.8781ZM465.316 87.3311V236H419.757V87.3311H465.316ZM558.813 238.131C545.847 238.131 534.301 235.911 524.177 231.471C514.053 227.03 506.06 220.991 500.198 213.353C494.337 205.538 491.051 196.835 490.34 187.243H535.367C535.9 192.394 538.298 196.568 542.561 199.765C546.824 202.962 552.064 204.561 558.28 204.561C563.964 204.561 568.316 203.495 571.335 201.364C574.533 199.055 576.131 196.124 576.131 192.572C576.131 188.309 573.911 185.2 569.47 183.247C565.03 181.115 557.836 178.806 547.889 176.319C537.232 173.833 528.351 171.257 521.246 168.593C514.141 165.751 508.014 161.399 502.863 155.538C497.712 149.499 495.136 141.417 495.136 131.292C495.136 122.767 497.445 115.04 502.063 108.113C506.859 101.008 513.786 95.4129 522.845 91.3276C532.081 87.2423 543.005 85.1996 555.616 85.1996C574.266 85.1996 588.92 89.8178 599.577 99.0541C610.412 108.29 616.629 120.546 618.227 135.822H576.131C575.421 130.671 573.112 126.585 569.204 123.566C565.474 120.546 560.501 119.036 554.284 119.036C548.955 119.036 544.87 120.102 542.028 122.234C539.186 124.187 537.765 126.941 537.765 130.493C537.765 134.756 539.985 137.953 544.426 140.085C549.044 142.216 556.149 144.347 565.74 146.479C576.753 149.321 585.723 152.163 592.65 155.005C599.577 157.669 605.616 162.11 610.767 168.326C616.096 174.365 618.849 182.536 619.027 192.838C619.027 201.541 616.54 209.357 611.567 216.284C606.771 223.034 599.755 228.362 590.519 232.27C581.46 236.178 570.891 238.131 558.813 238.131ZM721.501 125.164H696.989V236H651.429V125.164H634.911V87.3311H651.429V83.0682C651.429 64.7732 656.669 50.9188 667.149 41.5049C677.629 31.9133 692.993 27.1175 713.242 27.1175C716.616 27.1175 719.103 27.2063 720.702 27.384V66.0166C711.998 65.4837 705.87 66.7271 702.318 69.7466C698.765 72.7662 696.989 78.1836 696.989 85.9989V87.3311H721.501V125.164ZM894.775 87.3311L801.524 306.604H752.501L786.604 230.938L726.124 87.3311H777.012L811.382 180.316L845.485 87.3311H894.775Z" fill="black"/>
</g>
<defs>
<linearGradient id="paint0_linear_17_8" x1="0.0656523" y1="117.922" x2="295.005" y2="117.922" gradientUnits="userSpaceOnUse">
<stop stop-color="#4F8AFF"/>
<stop offset="1" stop-color="#2564DE"/>
</linearGradient>
<clipPath id="clip0_17_8">
<rect width="895" height="313" fill="white"/>
</clipPath>
</defs>
</svg>
