<svg width="566" height="561" viewBox="0 0 566 561" fill="none" xmlns="http://www.w3.org/2000/svg">
<rect x="384.474" y="504.581" width="302.012" height="473.658" rx="13.0365" transform="rotate(169.332 384.474 504.581)" fill="url(#paint0_linear_3407_31782)" fill-opacity="0.6"/>
<mask id="mask0_3407_31782" style="mask-type:alpha" maskUnits="userSpaceOnUse" x="2" y="41" width="381" height="518">
<rect x="384.474" y="504.581" width="302.012" height="473.658" rx="13.0365" transform="rotate(169.332 384.474 504.581)" fill="url(#paint1_linear_3407_31782)"/>
</mask>
<g mask="url(#mask0_3407_31782)">
<g opacity="0.6">
<rect x="167.702" y="169.553" width="55.405" height="72.7869" rx="5.43186" transform="rotate(169.332 167.702 169.553)" fill="url(#paint2_linear_3407_31782)" stroke="#2F333C" stroke-width="1.08637"/>
<rect x="153.731" y="142.336" width="38.023" height="15.2092" rx="5.43186" transform="rotate(169.332 153.731 142.336)" stroke="#2F333C" stroke-width="1.08637"/>
<path d="M143.228 99.9456L148.854 129.81" stroke="#2F333C" stroke-width="1.08637"/>
<path d="M151.082 141.639L156.707 171.503" stroke="#2F333C" stroke-width="1.08637"/>
<path d="M127.192 102.966L132.507 131.183" stroke="#2F333C" stroke-width="1.08637"/>
<path d="M135.348 146.263L140.663 174.48" stroke="#2F333C" stroke-width="1.08637"/>
<path d="M111.156 105.987L116.782 135.851" stroke="#2F333C" stroke-width="1.08637"/>
<path d="M119.01 147.68L124.636 177.545" stroke="#2F333C" stroke-width="1.08637"/>
</g>
<g filter="url(#filter0_i_3407_31782)">
<path d="M177.924 95.2791L185.51 93.8501L185.134 91.8562L186.384 91.6208L187.734 95.4775L178.296 97.2553L177.924 95.2791Z" fill="white"/>
<path d="M187.37 104.016C188.073 103.883 188.582 103.937 188.896 104.178C189.21 104.419 189.447 104.961 189.606 105.806L190.513 110.618C190.672 111.463 190.649 112.055 190.443 112.393C190.239 112.737 189.785 112.976 189.082 113.108L188.48 113.222C188.025 113.307 187.663 113.302 187.394 113.206C187.126 113.116 186.777 112.836 186.346 112.367L181.968 107.493L182.993 112.934L184.376 112.673L184.214 114.493L183.469 114.634C182.766 114.766 182.257 114.709 181.941 114.463C181.627 114.222 181.39 113.679 181.231 112.834L179.747 104.956L180.598 104.796C181.011 104.718 181.346 104.744 181.603 104.873C181.861 105.008 182.171 105.271 182.532 105.661L187.74 111.388L188.963 111.158L187.958 105.823L186.026 106.187L186.156 104.245L187.37 104.016Z" fill="white"/>
<path d="M182.782 121.067C182.623 120.222 182.645 119.628 182.85 119.283C183.055 118.945 183.509 118.709 184.212 118.577L184.974 118.433L185.735 120.281L184.424 120.528L185.375 125.58C185.443 125.94 185.544 126.169 185.679 126.266C185.815 126.369 186.051 126.388 186.387 126.325L187.07 126.197C187.413 126.132 187.628 126.027 187.717 125.882C187.812 125.736 187.826 125.485 187.759 125.131L187.163 121.967L188.687 121.68L189.218 124.498C189.285 124.852 189.386 125.078 189.52 125.175C189.655 125.272 189.893 125.288 190.236 125.224L190.706 125.135C191.054 125.07 191.274 124.967 191.364 124.828C191.454 124.689 191.465 124.442 191.398 124.087L190.527 119.461L189.357 119.682L189.354 117.764L189.939 117.654C190.642 117.522 191.151 117.576 191.465 117.816C191.78 118.057 192.016 118.6 192.176 119.444L193.13 124.513C193.29 125.358 193.266 125.95 193.061 126.288C192.856 126.627 192.401 126.862 191.698 126.995L190.848 127.155C190.298 127.258 189.865 127.202 189.549 126.987C189.234 126.771 188.959 126.336 188.726 125.683C188.796 126.446 188.711 127.031 188.469 127.438C188.228 127.844 187.814 128.103 187.229 128.213L186.246 128.398C185.478 128.543 184.918 128.477 184.566 128.201C184.22 127.923 183.967 127.359 183.807 126.508L182.782 121.067Z" fill="white"/>
<path d="M186.154 139.555L188.326 139.146L186.988 132.048L188.557 131.753L195.719 137.671L196.106 139.727L190.266 140.827L190.694 143.096L189.125 143.391L188.698 141.123L186.527 141.532L186.154 139.555ZM189.894 138.851L194.086 138.061L188.929 133.729L189.894 138.851Z" fill="white"/>
<path d="M193.234 153.61L198.527 153.164L200.051 161.255L198.426 161.396L197.194 154.856L195.338 154.985C195.572 155.773 195.764 156.468 195.914 157.07C196.065 157.678 196.188 158.233 196.282 158.735C196.574 160.283 196.527 161.494 196.141 162.368C195.761 163.241 195.042 163.777 193.985 163.976C192.886 164.183 192.011 163.926 191.362 163.204C190.713 162.488 190.218 161.223 189.876 159.409C189.697 158.458 189.567 157.592 189.488 156.812C189.409 156.038 189.382 155.373 189.406 154.818L191.125 154.008C191.132 154.955 191.17 155.841 191.24 156.666C191.317 157.495 191.426 158.285 191.567 159.036C191.789 160.211 192.06 161.017 192.38 161.452C192.707 161.886 193.145 162.051 193.694 161.948C194.214 161.85 194.542 161.546 194.679 161.037C194.816 160.528 194.779 159.718 194.57 158.608C194.436 157.899 194.257 157.125 194.032 156.286C193.807 155.448 193.541 154.556 193.234 153.61Z" fill="white"/>
<path d="M196.25 169.33C196.171 169.333 196.093 169.339 196.015 169.347C195.937 169.356 195.833 169.372 195.703 169.397C194.799 169.567 194.26 169.791 194.086 170.068C193.919 170.351 193.912 170.899 194.066 171.715L194.558 174.329C194.68 174.973 194.843 175.401 195.048 175.613C195.254 175.831 195.573 175.9 196.004 175.818L196.518 175.722C196.955 175.639 197.225 175.445 197.326 175.138C197.434 174.836 197.411 174.272 197.255 173.445C197.129 172.777 196.98 172.099 196.807 171.409C196.641 170.725 196.456 170.032 196.25 169.33ZM197.692 169.187C197.933 169.882 198.144 170.567 198.327 171.242C198.516 171.923 198.673 172.596 198.799 173.264C199.084 174.776 199.102 175.847 198.853 176.475C198.61 177.102 198.034 177.501 197.124 177.672L195.857 177.911C195.077 178.058 194.452 177.906 193.982 177.457C193.512 177.007 193.173 176.232 192.966 175.134L192.22 171.172C191.998 169.991 192.052 169.142 192.383 168.627C192.714 168.112 193.429 167.751 194.528 167.544L195.76 167.312C197.503 166.984 198.963 167.333 200.142 168.359C201.327 169.39 202.126 171.004 202.54 173.202C202.556 173.284 202.57 173.373 202.582 173.469C202.601 173.57 202.617 173.704 202.63 173.873L201.367 175.451L201.254 174.848C200.879 172.857 200.425 171.453 199.891 170.636C199.364 169.817 198.631 169.335 197.692 169.187Z" fill="white"/>
<path d="M194.695 185.186L203.578 188.744L202.411 182.549L200.39 182.93L200.364 180.888L203.634 180.272L205.594 190.676L204.087 190.96L195.144 187.57L194.695 185.186Z" fill="white"/>
<path d="M207.785 202.312C207.945 203.157 207.921 203.748 207.716 204.087C207.512 204.431 207.058 204.67 206.355 204.802L205.504 204.962C204.961 205.065 204.528 205.009 204.206 204.794C203.884 204.579 203.599 204.15 203.349 203.506C203.402 204.211 203.309 204.755 203.069 205.137C202.829 205.518 202.425 205.763 201.858 205.869L200.874 206.055C200.112 206.198 199.554 206.129 199.202 205.847C198.85 205.57 198.593 205.004 198.432 204.147L197.305 198.166C197.145 197.315 197.175 196.697 197.396 196.313C197.624 195.928 198.121 195.663 198.889 195.518L199.873 195.333C200.434 195.227 200.896 195.308 201.259 195.576C201.627 195.843 201.914 196.309 202.118 196.974C202.124 196.288 202.237 195.784 202.457 195.461C202.679 195.144 203.059 194.934 203.596 194.833L204.447 194.673C205.15 194.541 205.659 194.595 205.973 194.835C206.289 195.081 206.526 195.627 206.685 196.472L207.785 202.312ZM206.053 201.886L205.23 197.517C205.163 197.156 205.058 196.925 204.916 196.824C204.781 196.721 204.542 196.701 204.199 196.766L203.729 196.854C203.392 196.918 203.177 197.023 203.082 197.169C202.993 197.314 202.983 197.567 203.05 197.927L203.873 202.296C203.94 202.651 204.041 202.877 204.175 202.974C204.311 203.077 204.55 203.096 204.893 203.031L205.362 202.943C205.711 202.877 205.93 202.772 206.019 202.626C206.109 202.487 206.12 202.24 206.053 201.886ZM202.388 202.787L201.484 197.993C201.418 197.639 201.317 197.413 201.183 197.316C201.048 197.219 200.806 197.203 200.458 197.269L199.776 197.397C199.433 197.462 199.216 197.561 199.125 197.694C199.04 197.827 199.032 198.076 199.101 198.442L200.004 203.236C200.072 203.597 200.169 203.823 200.297 203.915C200.431 204.012 200.67 204.029 201.012 203.964L201.695 203.835C202.043 203.77 202.263 203.667 202.353 203.528C202.443 203.389 202.454 203.142 202.388 202.787Z" fill="white"/>
<path d="M206.132 224.564C205.899 223.911 205.69 223.243 205.507 222.562C205.329 221.88 205.174 221.187 205.042 220.484C204.757 218.972 204.736 217.899 204.977 217.266C205.226 216.638 205.802 216.239 206.706 216.069L207.965 215.832C208.745 215.685 209.369 215.833 209.838 216.277C210.308 216.727 210.647 217.501 210.854 218.6L211.598 222.552C211.821 223.734 211.766 224.582 211.435 225.097C211.104 225.613 210.389 225.974 209.29 226.181L208.058 226.413C206.315 226.741 204.855 226.392 203.677 225.366C202.499 224.34 201.702 222.728 201.288 220.53C201.254 220.347 201.231 220.208 201.219 220.112C201.202 220.024 201.192 219.937 201.188 219.852L202.444 218.285L202.556 218.879C202.932 220.875 203.386 222.282 203.92 223.1C204.454 223.923 205.191 224.411 206.132 224.564ZM207.587 224.4C207.697 224.398 207.8 224.391 207.895 224.379C207.998 224.372 208.085 224.361 208.156 224.348C209.077 224.174 209.628 223.945 209.807 223.661C209.985 223.376 209.997 222.823 209.843 222.002L209.354 219.406C209.23 218.75 209.062 218.314 208.85 218.097C208.638 217.88 208.307 217.813 207.858 217.898L207.336 217.996C206.881 218.082 206.6 218.279 206.492 218.587C206.385 218.894 206.411 219.468 206.569 220.307C206.68 220.897 206.819 221.538 206.986 222.228C207.159 222.924 207.36 223.648 207.587 224.4Z" fill="white"/>
<path d="M205.538 232.614L206.798 239.304L212.886 238.157L211.626 231.467L205.538 232.614ZM210.636 229.625C211.493 229.464 212.103 229.502 212.466 229.739C212.836 229.982 213.098 230.516 213.254 231.343L214.448 237.68C214.605 238.513 214.554 239.106 214.297 239.461C214.046 239.82 213.493 240.08 212.636 240.242L207.7 241.171C206.844 241.333 206.23 241.292 205.86 241.05C205.498 240.812 205.238 240.277 205.081 239.444L203.887 233.108C203.731 232.281 203.779 231.688 204.029 231.329C204.287 230.974 204.844 230.716 205.7 230.555L210.636 229.625Z" fill="white"/>
<path d="M207.017 249.724L214.603 248.295L214.227 246.301L215.477 246.066L216.827 249.922L207.389 251.7L207.017 249.724Z" fill="white"/>
<path d="M216.463 258.461C217.166 258.328 217.675 258.382 217.989 258.623C218.304 258.863 218.54 259.406 218.7 260.251L219.606 265.063C219.765 265.908 219.742 266.499 219.537 266.838C219.332 267.182 218.879 267.421 218.176 267.553L217.573 267.667C217.118 267.752 216.756 267.747 216.487 267.651C216.219 267.561 215.87 267.281 215.439 266.811L211.061 261.938L212.086 267.379L213.469 267.118L213.307 268.938L212.562 269.078C211.859 269.211 211.35 269.154 211.035 268.907C210.72 268.667 210.483 268.124 210.324 267.279L208.84 259.401L209.691 259.241C210.104 259.163 210.44 259.189 210.696 259.318C210.954 259.453 211.264 259.715 211.625 260.106L216.833 265.833L218.056 265.603L217.051 260.268L215.119 260.632L215.249 258.689L216.463 258.461Z" fill="white"/>
<path d="M213.2 282.548C213.041 281.704 213.064 281.109 213.268 280.765C213.473 280.426 213.928 280.191 214.631 280.058L215.393 279.915L216.154 281.763L214.842 282.01L215.794 287.061C215.862 287.421 215.963 287.65 216.097 287.747C216.233 287.85 216.469 287.87 216.806 287.806L217.488 287.678C217.831 287.613 218.047 287.508 218.136 287.363C218.23 287.217 218.244 286.966 218.178 286.612L217.582 283.448L219.106 283.161L219.637 285.979C219.704 286.334 219.804 286.559 219.939 286.656C220.073 286.753 220.312 286.77 220.655 286.705L221.124 286.617C221.473 286.551 221.692 286.448 221.782 286.309C221.872 286.17 221.884 285.923 221.817 285.569L220.945 280.943L219.776 281.163L219.772 279.246L220.357 279.136C221.06 279.003 221.569 279.057 221.884 279.298C222.198 279.538 222.435 280.081 222.594 280.926L223.549 285.995C223.708 286.84 223.685 287.431 223.48 287.77C223.274 288.108 222.82 288.344 222.117 288.476L221.266 288.636C220.717 288.74 220.284 288.684 219.968 288.468C219.652 288.252 219.378 287.817 219.144 287.164C219.215 287.928 219.129 288.513 218.888 288.919C218.646 289.326 218.233 289.584 217.648 289.694L216.664 289.879C215.896 290.024 215.336 289.958 214.985 289.682C214.639 289.404 214.386 288.84 214.225 287.99L213.2 282.548Z" fill="white"/>
<path d="M216.573 301.037L218.744 300.628L217.407 293.529L218.975 293.234L226.138 299.152L226.525 301.208L220.685 302.308L221.112 304.577L219.544 304.872L219.116 302.604L216.945 303.013L216.573 301.037ZM220.313 300.332L224.504 299.543L219.348 295.21L220.313 300.332Z" fill="white"/>
<path d="M222.327 308.055L227.62 307.609L229.145 315.7L227.519 315.841L226.287 309.301L224.431 309.43C224.665 310.218 224.857 310.913 225.007 311.515C225.158 312.123 225.281 312.677 225.375 313.18C225.667 314.728 225.62 315.938 225.234 316.813C224.854 317.686 224.135 318.222 223.078 318.421C221.979 318.628 221.104 318.37 220.455 317.649C219.806 316.933 219.311 315.668 218.969 313.854C218.79 312.903 218.66 312.037 218.581 311.257C218.502 310.483 218.475 309.818 218.499 309.263L220.218 308.453C220.225 309.4 220.264 310.285 220.333 311.11C220.41 311.94 220.519 312.73 220.66 313.481C220.882 314.656 221.153 315.462 221.473 315.897C221.8 316.331 222.238 316.496 222.787 316.393C223.307 316.295 223.635 315.991 223.772 315.482C223.909 314.973 223.872 314.163 223.663 313.053C223.53 312.344 223.35 311.57 223.125 310.731C222.9 309.893 222.634 309.001 222.327 308.055Z" fill="white"/>
<path d="M225.343 323.775C225.264 323.778 225.186 323.783 225.108 323.792C225.03 323.801 224.926 323.817 224.796 323.842C223.892 324.012 223.353 324.236 223.179 324.513C223.012 324.795 223.005 325.344 223.159 326.16L223.651 328.774C223.773 329.418 223.936 329.846 224.141 330.058C224.347 330.276 224.666 330.345 225.097 330.263L225.611 330.166C226.049 330.084 226.318 329.89 226.419 329.583C226.527 329.281 226.504 328.717 226.348 327.89C226.222 327.222 226.073 326.544 225.9 325.854C225.735 325.17 225.549 324.477 225.343 323.775ZM226.785 323.632C227.026 324.327 227.237 325.012 227.42 325.687C227.609 326.367 227.766 327.041 227.892 327.709C228.177 329.221 228.195 330.292 227.946 330.92C227.704 331.546 227.127 331.946 226.217 332.117L224.95 332.356C224.17 332.503 223.545 332.351 223.075 331.901C222.605 331.452 222.266 330.677 222.059 329.578L221.313 325.617C221.091 324.436 221.145 323.587 221.476 323.072C221.807 322.557 222.522 322.196 223.621 321.989L224.853 321.757C226.596 321.429 228.056 321.778 229.235 322.804C230.42 323.834 231.22 325.449 231.634 327.646C231.649 327.729 231.663 327.818 231.675 327.914C231.694 328.014 231.71 328.149 231.723 328.318L230.46 329.895L230.347 329.293C229.972 327.302 229.518 325.898 228.985 325.081C228.457 324.262 227.724 323.779 226.785 323.632Z" fill="white"/>
</g>
</g>
<g filter="url(#filter1_b_3407_31782)">
<rect x="124.933" width="441.067" height="487.781" rx="21.7274" fill="#2F3241" fill-opacity="0.5"/>
<rect x="125.476" y="0.543186" width="439.981" height="486.695" rx="21.1843" stroke="url(#paint3_linear_3407_31782)" stroke-width="1.08637"/>
</g>
<rect x="159.697" y="382.487" width="371.539" height="70.4472" rx="35.2236" fill="url(#paint4_linear_3407_31782)"/>
<path d="M308.652 424.041V411.64H313.512C314.602 411.64 315.469 411.942 316.113 412.545C316.758 413.149 317.08 413.969 317.08 415.006C317.08 415.516 316.948 415.99 316.685 416.43C316.427 416.869 316.011 417.198 315.437 417.414C315.923 417.531 316.348 417.757 316.711 418.091C317.074 418.425 317.335 418.785 317.493 419.172C317.657 419.553 317.739 419.934 317.739 420.315C317.739 421.358 317.388 422.24 316.685 422.96C315.987 423.681 315.056 424.041 313.89 424.041H308.652ZM310.954 421.993H313.767C314.247 421.993 314.628 421.823 314.909 421.484C315.191 421.138 315.331 420.737 315.331 420.28C315.331 419.834 315.185 419.436 314.892 419.084C314.605 418.727 314.212 418.548 313.714 418.548H310.954V421.993ZM310.954 416.623H313.354C313.758 416.623 314.08 416.483 314.32 416.201C314.561 415.914 314.681 415.557 314.681 415.129C314.681 414.684 314.558 414.332 314.312 414.074C314.066 413.817 313.72 413.688 313.275 413.688H310.954V416.623ZM319.647 420.605V415.639H321.862V420.209C321.862 420.842 322.017 421.314 322.327 421.624C322.644 421.929 323.022 422.081 323.461 422.081C323.977 422.081 324.407 421.923 324.753 421.607C325.105 421.29 325.28 420.795 325.28 420.121V415.639H327.478V424.041H325.28V422.855C325.058 423.282 324.727 423.616 324.287 423.857C323.854 424.097 323.411 424.217 322.96 424.217C321.946 424.217 321.141 423.906 320.543 423.285C319.945 422.658 319.647 421.765 319.647 420.605ZM328.884 415.639H331.231L333.314 420.877L335.423 415.639H337.761L332.558 428.146H330.237L332.162 423.391L328.884 415.639ZM343.474 424.041V411.64H345.618L350.347 419.699V411.64H352.658V424.041H350.549L345.759 415.885V424.041H343.474ZM355.339 422.116C354.941 421.443 354.741 420.675 354.741 419.814C354.741 418.952 354.941 418.188 355.339 417.52C355.737 416.852 356.268 416.342 356.93 415.99C357.592 415.633 358.321 415.454 359.118 415.454C359.909 415.454 360.636 415.633 361.298 415.99C361.96 416.342 362.49 416.855 362.889 417.529C363.287 418.197 363.487 418.958 363.487 419.814C363.487 420.669 363.287 421.437 362.889 422.116C362.49 422.79 361.96 423.306 361.298 423.663C360.636 424.021 359.909 424.199 359.118 424.199C358.321 424.199 357.592 424.021 356.93 423.663C356.268 423.306 355.737 422.79 355.339 422.116ZM356.921 419.814C356.921 420.482 357.132 421.024 357.554 421.44C357.976 421.856 358.497 422.064 359.118 422.064C359.734 422.064 360.252 421.856 360.674 421.44C361.096 421.024 361.307 420.482 361.307 419.814C361.307 419.157 361.096 418.627 360.674 418.223C360.252 417.819 359.734 417.616 359.118 417.616C358.503 417.616 357.982 417.822 357.554 418.232C357.132 418.636 356.921 419.163 356.921 419.814ZM364.295 415.639H366.633L368.338 420.948L370.034 415.639H371.977L373.691 420.948L375.396 415.639H377.734L374.728 424.041H372.9L371.028 418.407L369.208 424.041H367.389L364.295 415.639Z" fill="white"/>
<rect x="160.24" y="292.777" width="370.453" height="63.0096" rx="31.5048" fill="#2F3241" fill-opacity="0.5"/>
<path d="M201.188 328.648C199.046 328.648 197.678 326.956 197.678 323.698V322.978C197.678 319.81 198.974 318.01 201.152 318.01C203.33 318.01 204.59 319.954 204.59 322.942V323.662C204.59 326.92 203.438 328.648 201.188 328.648ZM201.188 329.944C204.356 329.944 206.174 327.424 206.174 323.68V322.96C206.174 319.288 204.32 316.75 201.152 316.75C198.002 316.75 196.076 319.198 196.076 322.996V323.716C196.076 327.46 198.11 329.944 201.188 329.944ZM208.89 329.872C209.52 329.872 210.042 329.368 210.042 328.72C210.042 328.072 209.52 327.568 208.89 327.568C208.26 327.568 207.738 328.072 207.738 328.72C207.738 329.368 208.26 329.872 208.89 329.872ZM216.447 329.944C218.625 329.944 220.875 328.666 220.875 326.092C220.875 324.436 219.903 323.32 218.409 322.78C219.597 322.258 220.389 321.358 220.389 320.062C220.389 318.046 218.445 316.75 216.447 316.75C214.467 316.75 212.487 318.01 212.487 320.098C212.487 321.358 213.207 322.33 214.431 322.798C213.063 323.284 212.001 324.4 212.001 326.128C212.001 328.684 214.341 329.944 216.447 329.944ZM216.447 328.666C214.953 328.666 213.603 327.766 213.603 326.074C213.603 324.364 214.953 323.482 216.483 323.482C218.013 323.482 219.273 324.346 219.273 326.038C219.273 327.748 218.031 328.666 216.447 328.666ZM216.501 322.24C215.187 322.24 214.071 321.466 214.071 320.116C214.071 318.784 215.115 317.974 216.447 317.974C217.779 317.974 218.805 318.838 218.805 320.08C218.805 321.448 217.869 322.24 216.501 322.24ZM226.966 329.944C229.414 329.944 231.376 328.288 231.376 325.57C231.376 322.942 229.684 321.304 227.38 321.304C226.156 321.304 225.274 321.7 224.752 322.186V318.262H230.692V316.912H223.456V323.806H224.032C224.716 323.032 225.58 322.564 227.074 322.564C228.712 322.564 229.774 323.752 229.774 325.57C229.774 327.514 228.694 328.684 226.948 328.684C224.986 328.684 224.428 327.712 224.176 326.308H222.682C222.862 328.414 224.194 329.944 226.966 329.944ZM235.947 329.782H237.513V316.912H236.055L233.067 319.072V320.53L235.947 318.46V329.782ZM243.136 329.782H244.702V316.912H243.244L240.256 319.072V320.53L243.136 318.46V329.782Z" fill="white"/>
<line x1="377.71" y1="306.9" x2="377.71" y2="341.664" stroke="#34384C" stroke-width="1.08637"/>
<g clip-path="url(#clip0_3407_31782)">
<path d="M420.232 327.435C418.49 334.422 411.411 338.67 404.433 336.928C397.445 335.186 393.198 328.107 394.94 321.13C396.681 314.142 403.751 309.895 410.738 311.636C417.716 313.368 421.974 320.447 420.232 327.435Z" fill="url(#paint5_linear_3407_31782)"/>
<path d="M413.793 322.658C414.047 320.926 412.733 319.989 410.921 319.368L411.511 317.016L410.085 316.659L409.515 318.951C409.138 318.859 408.751 318.767 408.364 318.686L408.934 316.384L407.509 316.028L406.928 318.37C406.612 318.299 406.307 318.227 406.011 318.156V318.146L404.036 317.657L403.659 319.185C403.659 319.185 404.718 319.429 404.698 319.439C405.278 319.582 405.38 319.969 405.36 320.275L404.687 322.953C404.728 322.963 404.779 322.974 404.84 323.004C404.789 322.994 404.738 322.984 404.687 322.963L403.75 326.711C403.679 326.885 403.496 327.149 403.099 327.047C403.109 327.068 402.06 326.793 402.06 326.793L401.347 328.433L403.211 328.901C403.557 328.993 403.893 329.074 404.229 329.166L403.638 331.539L405.064 331.895L405.655 329.543C406.042 329.645 406.429 329.746 406.796 329.838L406.215 332.181L407.641 332.537L408.232 330.164C410.676 330.622 412.509 330.439 413.273 328.229C413.894 326.457 413.243 325.428 411.959 324.756C412.907 324.542 413.609 323.921 413.793 322.658ZM410.523 327.241C410.085 329.013 407.091 328.056 406.124 327.811L406.908 324.664C407.875 324.909 410.992 325.387 410.523 327.241ZM410.971 322.627C410.564 324.247 408.079 323.422 407.274 323.218L407.987 320.366C408.792 320.57 411.389 320.947 410.971 322.627Z" fill="white"/>
</g>
<path d="M430.86 330.613V318.212H435.72C436.81 318.212 437.677 318.514 438.322 319.117C438.966 319.721 439.289 320.541 439.289 321.578C439.289 322.088 439.157 322.562 438.893 323.002C438.635 323.441 438.219 323.77 437.645 323.986C438.131 324.104 438.556 324.329 438.919 324.663C439.283 324.997 439.543 325.357 439.702 325.744C439.866 326.125 439.948 326.506 439.948 326.887C439.948 327.93 439.596 328.812 438.893 329.532C438.196 330.253 437.264 330.613 436.098 330.613H430.86ZM433.163 328.565H435.975C436.456 328.565 436.836 328.396 437.118 328.056C437.399 327.71 437.539 327.309 437.539 326.852C437.539 326.406 437.393 326.008 437.1 325.656C436.813 325.299 436.42 325.12 435.922 325.12H433.163V328.565ZM433.163 323.195H435.562C435.966 323.195 436.289 323.055 436.529 322.773C436.769 322.486 436.889 322.129 436.889 321.701C436.889 321.256 436.766 320.904 436.52 320.646C436.274 320.389 435.928 320.26 435.483 320.26H433.163V323.195ZM440.958 320.321V318.212H450.266V320.321H446.777V330.613H444.456V320.321H440.958ZM451.233 324.443C451.233 323.283 451.505 322.217 452.05 321.244C452.601 320.266 453.354 319.492 454.309 318.924C455.27 318.355 456.328 318.071 457.482 318.071C458.519 318.071 459.471 318.288 460.338 318.722C461.206 319.155 461.914 319.753 462.465 320.515L460.628 321.833C460.253 321.347 459.793 320.96 459.248 320.673C458.709 320.386 458.121 320.242 457.482 320.242C456.744 320.242 456.073 320.43 455.469 320.805C454.866 321.18 454.391 321.689 454.045 322.334C453.706 322.973 453.536 323.676 453.536 324.443C453.536 325.205 453.706 325.905 454.045 326.544C454.391 327.177 454.866 327.681 455.469 328.056C456.073 328.431 456.744 328.618 457.482 328.618C458.138 328.618 458.745 328.469 459.301 328.17C459.864 327.865 460.33 327.455 460.699 326.939L462.518 328.275C461.967 329.055 461.252 329.67 460.373 330.121C459.5 330.566 458.537 330.789 457.482 330.789C456.328 330.789 455.27 330.505 454.309 329.937C453.354 329.368 452.601 328.598 452.05 327.625C451.505 326.652 451.233 325.592 451.233 324.443Z" fill="white"/>
<path d="M478.584 320.431C478.849 320.161 479.263 320.136 479.554 320.357L479.638 320.431L485.609 326.521L491.579 320.431C491.844 320.161 492.257 320.136 492.549 320.357L492.633 320.431C492.897 320.701 492.921 321.123 492.705 321.421L492.633 321.506L486.135 328.133C485.871 328.403 485.457 328.428 485.165 328.207L485.082 328.133L478.584 321.506C478.293 321.209 478.293 320.728 478.584 320.431Z" fill="white"/>
<rect x="160.24" y="292.777" width="370.453" height="63.0096" rx="31.5048" stroke="#34384C" stroke-width="1.08637"/>
<rect x="160.24" y="202.608" width="370.453" height="63.0096" rx="31.5048" fill="#2F3241" fill-opacity="0.5"/>
<path d="M200.054 239.775C202.502 239.775 204.464 238.119 204.464 235.401C204.464 232.773 202.772 231.135 200.468 231.135C199.244 231.135 198.362 231.531 197.84 232.017V228.093H203.78V226.743H196.544V233.637H197.12C197.804 232.863 198.668 232.395 200.162 232.395C201.8 232.395 202.862 233.583 202.862 235.401C202.862 237.345 201.782 238.515 200.036 238.515C198.074 238.515 197.516 237.543 197.264 236.139H195.77C195.95 238.245 197.282 239.775 200.054 239.775ZM211.665 238.479C209.523 238.479 208.155 236.787 208.155 233.529V232.809C208.155 229.641 209.451 227.841 211.629 227.841C213.807 227.841 215.067 229.785 215.067 232.773V233.493C215.067 236.751 213.915 238.479 211.665 238.479ZM211.665 239.775C214.833 239.775 216.651 237.255 216.651 233.511V232.791C216.651 229.119 214.797 226.581 211.629 226.581C208.479 226.581 206.553 229.029 206.553 232.827V233.547C206.553 237.291 208.587 239.775 211.665 239.775ZM223.917 238.479C221.775 238.479 220.407 236.787 220.407 233.529V232.809C220.407 229.641 221.703 227.841 223.881 227.841C226.059 227.841 227.319 229.785 227.319 232.773V233.493C227.319 236.751 226.167 238.479 223.917 238.479ZM223.917 239.775C227.085 239.775 228.903 237.255 228.903 233.511V232.791C228.903 229.119 227.049 226.581 223.881 226.581C220.731 226.581 218.805 229.029 218.805 232.827V233.547C218.805 237.291 220.839 239.775 223.917 239.775ZM236.169 238.479C234.027 238.479 232.659 236.787 232.659 233.529V232.809C232.659 229.641 233.955 227.841 236.133 227.841C238.311 227.841 239.571 229.785 239.571 232.773V233.493C239.571 236.751 238.419 238.479 236.169 238.479ZM236.169 239.775C239.337 239.775 241.155 237.255 241.155 233.511V232.791C241.155 229.119 239.301 226.581 236.133 226.581C232.983 226.581 231.057 229.029 231.057 232.827V233.547C231.057 237.291 233.091 239.775 236.169 239.775Z" fill="white"/>
<line x1="375.549" y1="216.731" x2="375.549" y2="251.495" stroke="#34384C" stroke-width="1.08637"/>
<g clip-path="url(#clip1_3407_31782)">
<circle cx="405.424" cy="234.113" r="13.0365" fill="white"/>
<path fill-rule="evenodd" clip-rule="evenodd" d="M405.424 247.15C398.224 247.15 392.388 241.313 392.388 234.113C392.388 226.913 398.224 221.077 405.424 221.077C412.624 221.077 418.461 226.913 418.461 234.113C418.461 241.313 412.624 247.15 405.424 247.15ZM410.72 236.683C410.72 234.627 409.436 233.466 406.432 232.743V229.125C407.361 229.316 408.25 229.716 409.119 230.344L410.227 228.555C409.136 227.756 407.855 227.257 406.511 227.108V225.965H404.792V227.069C402.322 227.26 400.642 228.669 400.642 230.724C400.642 232.875 401.986 233.922 404.871 234.646V238.378C403.586 238.187 402.52 237.616 401.393 236.74L400.128 238.472C401.482 239.514 403.095 240.166 404.792 240.358V242.261H406.511V240.376C409.021 240.167 410.72 238.777 410.72 236.683ZM404.87 232.343C403.349 231.905 402.974 231.391 402.974 230.591C402.974 229.754 403.626 229.088 404.871 228.992L404.87 232.343ZM408.388 236.816C408.388 237.73 407.677 238.358 406.432 238.453V235.008C407.974 235.446 408.388 235.959 408.388 236.817V236.816Z" fill="#1E68F6"/>
</g>
<path d="M428.576 236.067V228.043H430.913V236.067C430.913 236.771 431.145 237.345 431.608 237.79C432.076 238.229 432.636 238.449 433.286 238.449C433.937 238.449 434.499 238.227 434.974 237.781C435.449 237.336 435.686 236.765 435.686 236.067V228.043H437.989V236.067C437.989 236.741 437.86 237.368 437.602 237.948C437.35 238.522 437.01 239.003 436.582 239.39C436.155 239.776 435.654 240.078 435.079 240.295C434.511 240.512 433.913 240.62 433.286 240.62C432.659 240.62 432.059 240.512 431.485 240.295C430.916 240.078 430.415 239.776 429.982 239.39C429.554 239.003 429.211 238.522 428.953 237.948C428.701 237.368 428.576 236.741 428.576 236.067ZM440.23 236.823H442.533C442.55 237.298 442.752 237.708 443.139 238.054C443.526 238.399 444.038 238.572 444.677 238.572C445.281 238.572 445.767 238.432 446.136 238.15C446.505 237.869 446.704 237.512 446.734 237.078C446.757 236.668 446.628 236.325 446.347 236.05C446.066 235.774 445.623 235.555 445.02 235.391L443.491 234.986C441.405 234.377 440.362 233.226 440.362 231.532C440.362 230.823 440.549 230.19 440.924 229.634C441.305 229.077 441.812 228.649 442.445 228.351C443.077 228.052 443.775 227.902 444.536 227.902C445.732 227.902 446.716 228.242 447.49 228.922C448.269 229.602 448.659 230.51 448.659 231.646H446.356C446.356 231.154 446.189 230.762 445.855 230.469C445.521 230.17 445.07 230.021 444.501 230.021C443.974 230.021 443.532 230.155 443.174 230.425C442.823 230.694 442.647 231.046 442.647 231.479C442.647 232.165 443.139 232.64 444.123 232.903L445.653 233.352C446.321 233.533 446.889 233.768 447.358 234.055C447.826 234.336 448.181 234.646 448.421 234.986C448.667 235.326 448.837 235.672 448.931 236.023C449.031 236.375 449.066 236.744 449.036 237.131C449.001 237.852 448.779 238.484 448.368 239.029C447.958 239.568 447.431 239.973 446.786 240.242C446.148 240.512 445.445 240.646 444.677 240.646C443.376 240.646 442.31 240.28 441.478 239.548C440.646 238.81 440.23 237.901 440.23 236.823ZM451.339 240.444V228.043H456.182C457.049 228.043 457.837 228.204 458.546 228.526C459.255 228.843 459.844 229.282 460.313 229.845C460.782 230.401 461.142 231.058 461.394 231.813C461.652 232.569 461.781 233.39 461.781 234.274C461.781 235.153 461.652 235.968 461.394 236.718C461.142 237.468 460.782 238.121 460.313 238.678C459.844 239.229 459.255 239.662 458.546 239.979C457.837 240.289 457.049 240.444 456.182 240.444H451.339ZM453.642 238.335H456.182C456.891 238.335 457.497 238.15 458.001 237.781C458.511 237.406 458.883 236.92 459.117 236.322C459.358 235.719 459.478 235.036 459.478 234.274C459.478 233.507 459.358 232.818 459.117 232.209C458.883 231.594 458.511 231.099 458.001 230.724C457.497 230.343 456.891 230.152 456.182 230.152H453.642V238.335Z" fill="white"/>
<path d="M478.584 230.262C478.849 229.992 479.263 229.968 479.554 230.188L479.638 230.262L485.608 236.352L491.579 230.262C491.843 229.992 492.257 229.968 492.549 230.188L492.633 230.262C492.897 230.532 492.921 230.954 492.705 231.252L492.633 231.337L486.135 237.964C485.871 238.234 485.457 238.259 485.165 238.038L485.082 237.964L478.584 231.337C478.293 231.04 478.293 230.559 478.584 230.262Z" fill="white"/>
<rect x="160.24" y="202.608" width="370.453" height="63.0096" rx="31.5048" stroke="#34384C" stroke-width="1.08637"/>
<path d="M390.086 148.44C393.398 148.44 394.964 146.514 394.964 143.382V135.408H393.398V143.166C393.398 146.316 392.174 147.144 390.122 147.144C387.98 147.144 387.026 146.1 387.026 143.4V135.408H385.46V143.58C385.46 146.712 387.134 148.44 390.086 148.44ZM402.259 148.44C404.815 148.44 406.705 146.802 406.705 144.642C406.705 142.212 405.193 141.348 402.331 140.898C399.703 140.502 399.235 139.854 399.235 138.594C399.235 137.388 400.153 136.506 401.917 136.506C403.699 136.506 404.635 137.172 404.941 138.792H406.345C406.093 136.506 404.491 135.246 401.917 135.246C399.487 135.246 397.777 136.758 397.777 138.738C397.777 141.024 399.379 141.87 402.079 142.284C404.527 142.68 405.193 143.292 405.193 144.75C405.193 146.208 403.915 147.18 402.259 147.18C399.667 147.18 399.055 145.884 398.857 144.354H397.345C397.579 146.55 398.821 148.44 402.259 148.44ZM410.953 147V136.668H412.699C416.245 136.668 417.685 138.756 417.685 141.726V141.87C417.685 145.02 416.029 147 412.717 147H410.953ZM409.387 148.278H412.753C417.253 148.278 419.305 145.452 419.305 141.888V141.726C419.305 138.144 417.217 135.408 412.789 135.408H409.387V148.278Z" fill="#A5ADCF"/>
<path d="M273.043 149.498C276.343 149.498 278.523 147.558 278.523 144.518C278.523 141.478 276.743 139.698 274.143 139.698C272.523 139.698 271.523 140.338 270.963 141.018L271.023 137.438H277.663V134.978H268.603L268.403 143.118H270.203C270.783 142.458 271.603 141.978 272.943 141.978C274.383 141.978 275.263 142.938 275.263 144.478C275.263 145.998 274.483 147.018 273.023 147.018C271.383 147.018 270.903 146.218 270.723 145.018H267.743C267.883 147.578 269.523 149.498 273.043 149.498ZM285.667 149.498C289.147 149.498 291.207 147.798 291.207 145.118C291.207 143.298 290.087 142.118 288.427 141.758C289.847 141.258 290.787 140.258 290.787 138.658C290.787 136.418 288.947 134.778 285.807 134.778C282.547 134.778 280.687 136.698 280.527 139.318H283.387C283.547 137.978 284.387 137.158 285.747 137.158C287.067 137.158 287.727 137.918 287.727 138.938C287.727 140.158 287.047 140.838 285.547 140.838H284.507V142.998H285.627C287.167 142.998 287.927 143.698 287.927 145.058C287.927 146.338 287.167 147.118 285.547 147.118C283.827 147.118 283.087 146.118 282.967 144.738H280.047C280.167 147.638 282.027 149.498 285.667 149.498ZM293.932 151.738L296.652 147.078L293.932 146.058L292.172 150.998L293.932 151.738ZM297.616 149.278H308.416V146.818H302.856L305.556 144.178C307.216 142.578 308.316 141.018 308.316 139.118C308.316 136.538 306.516 134.778 303.356 134.778C300.156 134.778 298.156 136.578 297.996 139.878H300.936C301.156 137.998 301.956 137.258 303.216 137.258C304.456 137.258 305.116 138.018 305.116 139.198C305.116 140.498 304.236 141.758 302.856 143.218L297.616 148.758V149.278ZM315.914 149.498C319.314 149.498 321.414 147.518 321.414 144.578C321.414 141.698 319.394 139.938 316.694 139.938C314.974 139.938 313.894 140.658 313.234 141.718C313.314 138.778 314.414 137.218 316.194 137.218C317.434 137.218 317.914 137.798 318.114 138.738H321.114C320.794 136.118 318.994 134.778 316.154 134.778C312.654 134.778 310.034 137.478 310.034 142.318V142.678C310.034 146.578 311.594 149.498 315.914 149.498ZM315.874 147.158C314.434 147.158 313.434 146.158 313.434 144.518C313.434 143.098 314.434 142.078 315.874 142.078C317.334 142.078 318.234 143.118 318.234 144.618C318.234 146.118 317.294 147.158 315.874 147.158ZM329.322 146.958C327.322 146.958 326.262 145.458 326.262 142.458V141.778C326.262 138.818 327.282 137.278 329.282 137.278C331.262 137.278 332.262 138.898 332.262 141.778V142.418C332.262 145.418 331.342 146.958 329.322 146.958ZM329.242 149.498C333.102 149.498 335.482 146.778 335.482 142.398V141.738C335.482 137.298 332.942 134.778 329.262 134.778C325.582 134.778 323.022 137.398 323.022 141.798V142.478C323.022 146.858 325.442 149.498 329.242 149.498ZM338.304 149.458C339.324 149.458 340.104 148.678 340.104 147.698C340.104 146.738 339.324 145.958 338.304 145.958C337.304 145.958 336.524 146.738 336.524 147.698C336.524 148.678 337.304 149.458 338.304 149.458ZM341.386 149.278H352.186V146.818H346.626L349.326 144.178C350.986 142.578 352.086 141.018 352.086 139.118C352.086 136.538 350.286 134.778 347.126 134.778C343.926 134.778 341.926 136.578 341.766 139.878H344.706C344.926 137.998 345.726 137.258 346.986 137.258C348.226 137.258 348.886 138.018 348.886 139.198C348.886 140.498 348.006 141.758 346.626 143.218L341.386 148.758V149.278ZM360.103 146.958C358.103 146.958 357.043 145.458 357.043 142.458V141.778C357.043 138.818 358.063 137.278 360.063 137.278C362.043 137.278 363.043 138.898 363.043 141.778V142.418C363.043 145.418 362.123 146.958 360.103 146.958ZM360.023 149.498C363.883 149.498 366.263 146.778 366.263 142.398V141.738C366.263 137.298 363.723 134.778 360.043 134.778C356.363 134.778 353.803 137.398 353.803 141.798V142.478C353.803 146.858 356.223 149.498 360.023 149.498Z" fill="white"/>
<path d="M283.629 111.013H285.021V99.5734H283.725L281.069 101.493V102.789L283.629 100.949V111.013ZM292.606 111.013H296.526C298.814 111.013 300.286 109.973 300.286 107.813V107.749C300.286 106.261 299.662 105.413 297.998 105.013C299.31 104.565 299.726 103.637 299.726 102.597V102.533C299.726 100.277 298.174 99.5734 296.046 99.5734H292.606V111.013ZM293.966 109.925V105.653H296.302C298.142 105.653 298.926 106.325 298.926 107.733V107.797C298.926 109.189 298.158 109.925 296.494 109.925H293.966ZM293.966 104.565V100.661H296.014C297.614 100.661 298.366 101.189 298.366 102.485V102.549C298.366 103.957 297.726 104.565 296.046 104.565H293.966ZM304.677 111.013H306.069V100.709H309.397V99.5734H301.349V100.709H304.677V111.013ZM315.515 111.157C318.075 111.157 319.899 109.861 320.299 107.221H319.003C318.715 109.077 317.419 110.021 315.547 110.021C313.083 110.021 311.611 108.261 311.611 105.349V105.221C311.611 102.341 313.195 100.501 315.563 100.501C317.515 100.501 318.523 101.397 318.811 103.141H320.187C319.947 100.661 317.931 99.3974 315.547 99.3974C312.443 99.3974 310.171 101.845 310.171 105.237V105.365C310.171 108.885 312.203 111.157 315.515 111.157ZM326.589 111.013H327.917V102.645H326.589V111.013ZM327.229 100.901C327.709 100.901 328.109 100.501 328.109 100.021C328.109 99.5414 327.709 99.1414 327.229 99.1414C326.749 99.1414 326.349 99.5414 326.349 100.021C326.349 100.501 326.749 100.901 327.229 100.901ZM333.227 111.157C335.259 111.157 336.299 110.133 336.299 108.613C336.299 106.837 335.083 106.453 333.355 106.133C331.819 105.861 331.403 105.557 331.403 104.805C331.403 104.085 332.027 103.605 332.987 103.605C334.043 103.605 334.555 104.005 334.747 104.917H336.027C335.803 103.109 334.507 102.501 333.003 102.501C331.691 102.501 330.171 103.301 330.171 104.853C330.171 106.309 330.907 106.917 333.083 107.317C334.379 107.557 335.035 107.845 335.035 108.725C335.035 109.621 334.475 110.053 333.211 110.053C331.867 110.053 331.339 109.429 331.243 108.437H329.947C330.027 110.149 331.227 111.157 333.227 111.157ZM342.557 111.013H343.885V106.421C343.885 104.357 344.957 103.829 346.637 103.749V102.501C345.133 102.549 344.413 103.205 343.885 104.149V102.645H342.557V111.013ZM351.826 110.053C350.13 110.053 349.09 108.805 349.09 106.901V106.773C349.09 104.853 350.146 103.605 351.826 103.605C353.49 103.605 354.562 104.853 354.562 106.789V106.901C354.562 108.789 353.506 110.053 351.826 110.053ZM351.81 111.157C354.194 111.157 355.938 109.413 355.938 106.885V106.757C355.938 104.245 354.194 102.501 351.826 102.501C349.458 102.501 347.714 104.261 347.714 106.773V106.901C347.714 109.349 349.426 111.157 351.81 111.157ZM360.827 111.157C362.171 111.157 363.099 110.469 363.483 109.685V111.013H364.811V102.645H363.483V107.717C363.483 109.221 362.363 110.005 361.179 110.005C359.867 110.005 359.243 109.349 359.243 107.877V102.645H357.915V107.941C357.915 110.245 359.163 111.157 360.827 111.157ZM370.839 114.069C373.175 114.069 374.823 112.885 374.839 110.453V102.645H373.511V103.989C373.031 103.173 372.167 102.501 370.775 102.501C368.471 102.501 366.871 104.389 366.871 106.661V106.773C366.871 109.077 368.487 110.741 370.679 110.741C371.895 110.741 373.031 109.973 373.511 109.157V110.373C373.511 112.165 372.471 112.949 370.823 112.949C369.399 112.949 368.599 112.453 368.407 111.493H367.047C367.271 112.901 368.359 114.069 370.839 114.069ZM370.823 109.637C369.415 109.637 368.247 108.549 368.247 106.725V106.597C368.247 104.837 369.239 103.605 370.903 103.605C372.535 103.605 373.559 104.693 373.559 106.565V106.677C373.559 108.549 372.375 109.637 370.823 109.637ZM377.526 111.013H378.854V105.941C378.854 104.437 379.958 103.653 381.19 103.653C382.534 103.653 383.158 104.309 383.158 105.781V111.013H384.486V105.877C384.486 103.445 383.27 102.501 381.542 102.501C380.166 102.501 379.238 103.189 378.854 103.973V98.6454H377.526V111.013ZM387.12 111.013H388.464V98.6454H387.12V111.013ZM391.934 113.925H393.278L397.902 102.645H396.542L394.222 108.645L391.662 102.645H390.238L393.518 110.149L391.934 113.925Z" fill="white"/>
<path d="M425.038 45.9893L421.694 56.7639H419.348L417.177 48.8052L415.006 56.7639H412.66L409.296 45.9893H411.565L413.814 54.652L416.101 45.9893H418.428L420.619 54.6129L422.848 45.9893H425.038ZM427.838 44.5618C427.434 44.5618 427.095 44.4249 426.821 44.1511C426.548 43.8774 426.411 43.5384 426.411 43.1343C426.411 42.7302 426.548 42.3912 426.821 42.1174C427.095 41.8437 427.434 41.7068 427.838 41.7068C428.229 41.7068 428.562 41.8437 428.835 42.1174C429.109 42.3912 429.246 42.7302 429.246 43.1343C429.246 43.5384 429.109 43.8774 428.835 44.1511C428.562 44.4249 428.229 44.5618 427.838 44.5618ZM428.933 45.9893V56.7639H426.704V45.9893H428.933ZM434.461 47.8079V53.772C434.461 54.1762 434.552 54.4695 434.735 54.652C434.93 54.8215 435.256 54.9062 435.712 54.9062H437.081V56.7639H435.321C434.317 56.7639 433.548 56.5293 433.014 56.0599C432.479 55.5906 432.212 54.828 432.212 53.772V47.8079H430.941V45.9893H432.212V43.3103H434.461V45.9893H437.081V47.8079H434.461ZM444.709 45.8133C445.53 45.8133 446.26 45.9893 446.899 46.3413C447.551 46.6932 448.059 47.2147 448.424 47.9056C448.802 48.5966 448.991 49.4309 448.991 50.4086V56.7639H446.782V50.7411C446.782 49.7764 446.54 49.0398 446.058 48.5314C445.576 48.0099 444.917 47.7492 444.083 47.7492C443.249 47.7492 442.584 48.0099 442.088 48.5314C441.606 49.0398 441.365 49.7764 441.365 50.7411V56.7639H439.136V42.2934H441.365V47.2408C441.743 46.7845 442.219 46.4325 442.792 46.1848C443.379 45.9371 444.018 45.8133 444.709 45.8133ZM451.092 51.3277C451.092 50.2457 451.313 49.2875 451.757 48.4532C452.213 47.6188 452.826 46.9735 453.595 46.5173C454.377 46.0479 455.244 45.8133 456.195 45.8133C456.899 45.8133 457.59 45.9697 458.268 46.2826C458.959 46.5824 459.507 46.9866 459.911 47.495V42.2934H462.16V56.7639H459.911V55.1409C459.546 55.6623 459.037 56.0925 458.386 56.4315C457.747 56.7704 457.01 56.9399 456.176 56.9399C455.237 56.9399 454.377 56.7053 453.595 56.2359C452.826 55.7536 452.213 55.0887 451.757 54.2414C451.313 53.381 451.092 52.4097 451.092 51.3277ZM459.911 51.3668C459.911 50.6237 459.754 49.9784 459.442 49.4309C459.142 48.8834 458.744 48.4662 458.249 48.1794C457.753 47.8926 457.219 47.7492 456.645 47.7492C456.072 47.7492 455.537 47.8926 455.042 48.1794C454.546 48.4532 454.142 48.8638 453.829 49.4113C453.53 49.9458 453.38 50.5846 453.38 51.3277C453.38 52.0708 453.53 52.7226 453.829 53.2832C454.142 53.8437 454.546 54.274 455.042 54.5738C455.55 54.8606 456.085 55.004 456.645 55.004C457.219 55.004 457.753 54.8606 458.249 54.5738C458.744 54.287 459.142 53.8698 459.442 53.3223C459.754 52.7617 459.911 52.1099 459.911 51.3668ZM467.317 47.5537C467.643 47.0061 468.073 46.5824 468.608 46.2826C469.155 45.9697 469.8 45.8133 470.543 45.8133V48.1207H469.976C469.103 48.1207 468.438 48.3424 467.982 48.7856C467.539 49.2288 467.317 49.998 467.317 51.0931V56.7639H465.088V45.9893H467.317V47.5537ZM471.849 51.3277C471.849 50.2457 472.071 49.2875 472.514 48.4532C472.971 47.6188 473.583 46.9735 474.352 46.5173C475.135 46.0479 475.995 45.8133 476.934 45.8133C477.781 45.8133 478.518 45.9828 479.143 46.3217C479.782 46.6476 480.291 47.0583 480.669 47.5537V45.9893H482.917V56.7639H480.669V55.1604C480.291 55.6689 479.776 56.0925 479.124 56.4315C478.472 56.7704 477.729 56.9399 476.895 56.9399C475.969 56.9399 475.122 56.7053 474.352 56.2359C473.583 55.7536 472.971 55.0887 472.514 54.2414C472.071 53.381 471.849 52.4097 471.849 51.3277ZM480.669 51.3668C480.669 50.6237 480.512 49.9784 480.199 49.4309C479.9 48.8834 479.502 48.4662 479.007 48.1794C478.511 47.8926 477.977 47.7492 477.403 47.7492C476.829 47.7492 476.295 47.8926 475.8 48.1794C475.304 48.4532 474.9 48.8638 474.587 49.4113C474.287 49.9458 474.137 50.5846 474.137 51.3277C474.137 52.0708 474.287 52.7226 474.587 53.2832C474.9 53.8437 475.304 54.274 475.8 54.5738C476.308 54.8606 476.842 55.004 477.403 55.004C477.977 55.004 478.511 54.8606 479.007 54.5738C479.502 54.287 479.9 53.8698 480.199 53.3223C480.512 52.7617 480.669 52.1099 480.669 51.3668ZM500.316 45.9893L496.972 56.7639H494.626L492.455 48.8052L490.284 56.7639H487.938L484.574 45.9893H486.843L489.092 54.652L491.379 45.9893H493.706L495.897 54.6129L498.126 45.9893H500.316Z" fill="#5D6588"/>
<path d="M219.921 43.1734C221.368 43.1734 222.632 43.4537 223.715 44.0142C224.81 44.5618 225.65 45.357 226.237 46.3999C226.837 47.4298 227.137 48.6357 227.137 50.0175C227.137 51.3994 226.837 52.5988 226.237 53.6156C225.65 54.6325 224.81 55.4146 223.715 55.9622C222.632 56.4967 221.368 56.7639 219.921 56.7639H215.482V43.1734H219.921ZM219.921 54.9453C221.511 54.9453 222.73 54.5151 223.578 53.6547C224.425 52.7943 224.849 51.5819 224.849 50.0175C224.849 48.4401 224.425 47.2082 223.578 46.3217C222.73 45.4352 221.511 44.992 219.921 44.992H217.711V54.9453H219.921ZM239.221 51.1126C239.221 51.5167 239.195 51.8818 239.143 52.2077H230.91C230.976 53.0681 231.295 53.759 231.869 54.2805C232.442 54.8019 233.146 55.0627 233.98 55.0627C235.18 55.0627 236.027 54.5608 236.523 53.5569H238.928C238.602 54.5477 238.009 55.3625 237.148 56.0013C236.301 56.627 235.245 56.9399 233.98 56.9399C232.951 56.9399 232.025 56.7118 231.204 56.2555C230.395 55.7862 229.757 55.1344 229.287 54.3C228.831 53.4527 228.603 52.4749 228.603 51.3668C228.603 50.2587 228.825 49.2875 229.268 48.4532C229.724 47.6058 230.356 46.954 231.165 46.4977C231.986 46.0414 232.924 45.8133 233.98 45.8133C234.997 45.8133 235.903 46.0349 236.699 46.4781C237.494 46.9214 238.113 47.5471 238.556 48.3554C238.999 49.1506 239.221 50.0697 239.221 51.1126ZM236.894 50.4086C236.881 49.5873 236.588 48.929 236.014 48.4336C235.441 47.9382 234.73 47.6905 233.883 47.6905C233.114 47.6905 232.455 47.9382 231.908 48.4336C231.36 48.916 231.034 49.5743 230.93 50.4086H236.894ZM243.644 47.5732C244.022 47.0778 244.537 46.6607 245.189 46.3217C245.841 45.9828 246.577 45.8133 247.399 45.8133C248.337 45.8133 249.191 46.0479 249.96 46.5173C250.742 46.9735 251.355 47.6188 251.798 48.4532C252.242 49.2875 252.463 50.2457 252.463 51.3277C252.463 52.4097 252.242 53.381 251.798 54.2414C251.355 55.0887 250.742 55.7536 249.96 56.2359C249.191 56.7053 248.337 56.9399 247.399 56.9399C246.577 56.9399 245.847 56.777 245.208 56.451C244.57 56.1121 244.048 55.6949 243.644 55.1995V61.8872H241.415V45.9893H243.644V47.5732ZM250.195 51.3277C250.195 50.5846 250.039 49.9458 249.726 49.4113C249.426 48.8638 249.022 48.4532 248.513 48.1794C248.018 47.8926 247.483 47.7492 246.91 47.7492C246.349 47.7492 245.815 47.8926 245.306 48.1794C244.811 48.4662 244.407 48.8834 244.094 49.4309C243.794 49.9784 243.644 50.6237 243.644 51.3668C243.644 52.1099 243.794 52.7617 244.094 53.3223C244.407 53.8698 244.811 54.287 245.306 54.5738C245.815 54.8606 246.349 55.004 246.91 55.004C247.483 55.004 248.018 54.8606 248.513 54.5738C249.022 54.274 249.426 53.8437 249.726 53.2832C250.039 52.7226 250.195 52.0708 250.195 51.3277ZM259.341 56.9399C258.325 56.9399 257.405 56.7118 256.584 56.2555C255.763 55.7862 255.118 55.1344 254.648 54.3C254.179 53.4527 253.944 52.4749 253.944 51.3668C253.944 50.2718 254.185 49.3005 254.668 48.4532C255.15 47.6058 255.808 46.954 256.643 46.4977C257.477 46.0414 258.409 45.8133 259.439 45.8133C260.469 45.8133 261.401 46.0414 262.235 46.4977C263.07 46.954 263.728 47.6058 264.21 48.4532C264.693 49.3005 264.934 50.2718 264.934 51.3668C264.934 52.4619 264.686 53.4331 264.191 54.2805C263.696 55.1278 263.018 55.7862 262.157 56.2555C261.31 56.7118 260.371 56.9399 259.341 56.9399ZM259.341 55.004C259.915 55.004 260.449 54.8671 260.945 54.5933C261.453 54.3196 261.864 53.9089 262.177 53.3614C262.49 52.8139 262.646 52.149 262.646 51.3668C262.646 50.5846 262.496 49.9263 262.196 49.3918C261.896 48.8443 261.499 48.4336 261.003 48.1598C260.508 47.8861 259.974 47.7492 259.4 47.7492C258.826 47.7492 258.292 47.8861 257.797 48.1598C257.314 48.4336 256.93 48.8443 256.643 49.3918C256.356 49.9263 256.213 50.5846 256.213 51.3668C256.213 52.5271 256.506 53.4266 257.093 54.0654C257.692 54.6911 258.442 55.004 259.341 55.004ZM271.049 56.9399C270.201 56.9399 269.439 56.79 268.761 56.4902C268.096 56.1773 267.568 55.7601 267.177 55.2386C266.786 54.7042 266.577 54.111 266.551 53.4592H268.859C268.898 53.9154 269.113 54.3 269.504 54.6129C269.908 54.9127 270.41 55.0627 271.01 55.0627C271.635 55.0627 272.118 54.9453 272.457 54.7107C272.809 54.463 272.985 54.1501 272.985 53.772C272.985 53.3679 272.789 53.0681 272.398 52.8725C272.02 52.677 271.414 52.4619 270.579 52.2272C269.771 52.0056 269.113 51.7905 268.604 51.5819C268.096 51.3733 267.653 51.0539 267.275 50.6237C266.91 50.1935 266.727 49.6264 266.727 48.9225C266.727 48.3489 266.897 47.8274 267.235 47.3581C267.574 46.8758 268.057 46.4977 268.683 46.2239C269.321 45.9502 270.051 45.8133 270.873 45.8133C272.098 45.8133 273.082 46.1262 273.825 46.7519C274.582 47.3646 274.986 48.2055 275.038 49.2745H272.809C272.769 48.7921 272.574 48.4075 272.222 48.1207C271.87 47.8339 271.394 47.6905 270.794 47.6905C270.208 47.6905 269.758 47.8013 269.445 48.023C269.132 48.2446 268.976 48.5379 268.976 48.9029C268.976 49.1897 269.08 49.4309 269.289 49.6264C269.497 49.822 269.752 49.9784 270.051 50.0958C270.351 50.2001 270.794 50.3369 271.381 50.5064C272.163 50.715 272.802 50.9301 273.297 51.1517C273.806 51.3603 274.243 51.6732 274.608 52.0903C274.973 52.5075 275.162 53.0616 275.175 53.7525C275.175 54.3652 275.005 54.9127 274.666 55.3951C274.327 55.8774 273.845 56.2555 273.219 56.5293C272.607 56.803 271.883 56.9399 271.049 56.9399ZM278.718 44.5618C278.313 44.5618 277.975 44.4249 277.701 44.1511C277.427 43.8774 277.29 43.5384 277.29 43.1343C277.29 42.7302 277.427 42.3912 277.701 42.1174C277.975 41.8437 278.313 41.7068 278.718 41.7068C279.109 41.7068 279.441 41.8437 279.715 42.1174C279.989 42.3912 280.126 42.7302 280.126 43.1343C280.126 43.5384 279.989 43.8774 279.715 44.1511C279.441 44.4249 279.109 44.5618 278.718 44.5618ZM279.813 45.9893V56.7639H277.583V45.9893H279.813ZM285.34 47.8079V53.772C285.34 54.1762 285.431 54.4695 285.614 54.652C285.81 54.8215 286.135 54.9062 286.592 54.9062H287.961V56.7639H286.201C285.197 56.7639 284.428 56.5293 283.893 56.0599C283.359 55.5906 283.091 54.828 283.091 53.772V47.8079H281.82V45.9893H283.091V43.3103H285.34V45.9893H287.961V47.8079H285.34Z" fill="#1A82FF"/>
<line x1="346.01" y1="29.332" x2="346.01" y2="64.0959" stroke="#34384C" stroke-width="1.08637"/>
<defs>
<filter id="filter0_i_3407_31782" x="177.924" y="91.6208" width="55.9719" height="241.875" filterUnits="userSpaceOnUse" color-interpolation-filters="sRGB">
<feFlood flood-opacity="0" result="BackgroundImageFix"/>
<feBlend mode="normal" in="SourceGraphic" in2="BackgroundImageFix" result="shape"/>
<feColorMatrix in="SourceAlpha" type="matrix" values="0 0 0 0 0 0 0 0 0 0 0 0 0 0 0 0 0 0 127 0" result="hardAlpha"/>
<feOffset dx="2.17274" dy="1.08637"/>
<feGaussianBlur stdDeviation="1.08637"/>
<feComposite in2="hardAlpha" operator="arithmetic" k2="-1" k3="1"/>
<feColorMatrix type="matrix" values="0 0 0 0 0 0 0 0 0 0 0 0 0 0 0 0 0 0 0.15 0"/>
<feBlend mode="normal" in2="shape" result="effect1_innerShadow_3407_31782"/>
</filter>
<filter id="filter1_b_3407_31782" x="55.405" y="-69.5278" width="580.123" height="626.837" filterUnits="userSpaceOnUse" color-interpolation-filters="sRGB">
<feFlood flood-opacity="0" result="BackgroundImageFix"/>
<feGaussianBlur in="BackgroundImageFix" stdDeviation="34.7639"/>
<feComposite in2="SourceAlpha" operator="in" result="effect1_backgroundBlur_3407_31782"/>
<feBlend mode="normal" in="SourceGraphic" in2="effect1_backgroundBlur_3407_31782" result="shape"/>
</filter>
<linearGradient id="paint0_linear_3407_31782" x1="535.479" y1="504.581" x2="535.479" y2="978.24" gradientUnits="userSpaceOnUse">
<stop stop-color="#083EFD"/>
<stop offset="1" stop-opacity="0"/>
</linearGradient>
<linearGradient id="paint1_linear_3407_31782" x1="535.479" y1="504.581" x2="535.479" y2="978.24" gradientUnits="userSpaceOnUse">
<stop stop-color="#E42C64"/>
<stop offset="1" stop-color="#614AD3"/>
</linearGradient>
<linearGradient id="paint2_linear_3407_31782" x1="195.405" y1="169.553" x2="195.405" y2="242.34" gradientUnits="userSpaceOnUse">
<stop stop-color="#F9AA4B"/>
<stop offset="1" stop-color="#E8B579"/>
</linearGradient>
<linearGradient id="paint3_linear_3407_31782" x1="304.184" y1="206.622" x2="578.231" y2="475.306" gradientUnits="userSpaceOnUse">
<stop stop-color="#25292C" stop-opacity="0"/>
<stop offset="1" stop-color="#2B2C31"/>
</linearGradient>
<linearGradient id="paint4_linear_3407_31782" x1="539.905" y1="400.994" x2="200.951" y2="539.882" gradientUnits="userSpaceOnUse">
<stop stop-color="#246CF9"/>
<stop offset="0.0001" stop-color="#1E68F6"/>
<stop offset="1" stop-color="#0047D0"/>
</linearGradient>
<linearGradient id="paint5_linear_3407_31782" x1="407.579" y1="311.24" x2="407.579" y2="337.316" gradientUnits="userSpaceOnUse">
<stop stop-color="#F9AA4B"/>
<stop offset="1" stop-color="#F7931A"/>
</linearGradient>
<clipPath id="clip0_3407_31782">
<rect width="26.0729" height="26.0729" fill="white" transform="translate(394.549 311.246)"/>
</clipPath>
<clipPath id="clip1_3407_31782">
<rect width="26.0729" height="26.0729" fill="white" transform="translate(392.388 221.077)"/>
</clipPath>
</defs>
</svg>
