<svg width="681" height="583" viewBox="0 0 681 583" fill="none" xmlns="http://www.w3.org/2000/svg">
<mask id="mask0_3407_28420" style="mask-type:alpha" maskUnits="userSpaceOnUse" x="117" y="47" width="509" height="509">
<circle cx="371.5" cy="301.5" r="254.5" fill="#C4C4C4"/>
</mask>
<g mask="url(#mask0_3407_28420)">
<circle cx="371.5" cy="301.5" r="254.5" fill="url(#paint0_radial_3407_28420)"/>
</g>
<circle cx="365" cy="307" r="231" stroke="#34384C" stroke-width="2" stroke-dasharray="5 4"/>
<circle cx="357.5" cy="220.5" r="191.67" stroke="#34384C" stroke-width="1.65948" stroke-dasharray="4.15 3.32"/>
<g filter="url(#filter0_d_3407_28420)">
<rect x="145" y="70" width="209" height="110" rx="12" fill="#23262F"/>
<path fill-rule="evenodd" clip-rule="evenodd" d="M177.27 108.952L178.863 103.863L183.952 102.27L182.359 107.359L177.27 108.952Z" stroke="#11CABE" stroke-width="1.5" stroke-linecap="round" stroke-linejoin="round"/>
<circle cx="180.611" cy="105.611" r="9.61098" stroke="#11CABE" stroke-width="1.5" stroke-linecap="round" stroke-linejoin="round"/>
<path d="M209.648 103.2V100.878H213.986V114H211.394V103.2H209.648ZM219.391 110.31C219.487 110.838 219.703 111.246 220.039 111.534C220.387 111.81 220.849 111.948 221.425 111.948C222.169 111.948 222.709 111.642 223.045 111.03C223.381 110.406 223.549 109.362 223.549 107.898C223.273 108.282 222.883 108.582 222.379 108.798C221.887 109.014 221.353 109.122 220.777 109.122C220.009 109.122 219.313 108.966 218.689 108.654C218.077 108.33 217.591 107.856 217.231 107.232C216.871 106.596 216.691 105.828 216.691 104.928C216.691 103.596 217.087 102.54 217.879 101.76C218.671 100.968 219.751 100.572 221.119 100.572C222.823 100.572 224.023 101.118 224.719 102.21C225.427 103.302 225.781 104.946 225.781 107.142C225.781 108.702 225.643 109.98 225.367 110.976C225.103 111.972 224.641 112.728 223.981 113.244C223.333 113.76 222.445 114.018 221.317 114.018C220.429 114.018 219.673 113.85 219.049 113.514C218.425 113.166 217.945 112.716 217.609 112.164C217.285 111.6 217.099 110.982 217.051 110.31H219.391ZM221.299 107.07C221.923 107.07 222.415 106.878 222.775 106.494C223.135 106.11 223.315 105.594 223.315 104.946C223.315 104.238 223.123 103.692 222.739 103.308C222.367 102.912 221.857 102.714 221.209 102.714C220.561 102.714 220.045 102.918 219.661 103.326C219.289 103.722 219.103 104.25 219.103 104.91C219.103 105.546 219.283 106.068 219.643 106.476C220.015 106.872 220.567 107.07 221.299 107.07ZM229.939 107.052C228.739 106.428 228.139 105.462 228.139 104.154C228.139 103.506 228.301 102.918 228.625 102.39C228.961 101.85 229.459 101.424 230.119 101.112C230.791 100.788 231.607 100.626 232.567 100.626C233.527 100.626 234.337 100.788 234.997 101.112C235.669 101.424 236.167 101.85 236.491 102.39C236.827 102.918 236.995 103.506 236.995 104.154C236.995 104.814 236.833 105.396 236.509 105.9C236.185 106.392 235.753 106.776 235.213 107.052C235.873 107.34 236.389 107.76 236.761 108.312C237.133 108.864 237.319 109.518 237.319 110.274C237.319 111.09 237.109 111.804 236.689 112.416C236.281 113.016 235.717 113.478 234.997 113.802C234.277 114.126 233.467 114.288 232.567 114.288C231.667 114.288 230.857 114.126 230.137 113.802C229.429 113.478 228.865 113.016 228.445 112.416C228.037 111.804 227.833 111.09 227.833 110.274C227.833 109.518 228.019 108.864 228.391 108.312C228.763 107.748 229.279 107.328 229.939 107.052ZM234.547 104.514C234.547 103.926 234.367 103.47 234.007 103.146C233.659 102.822 233.179 102.66 232.567 102.66C231.967 102.66 231.487 102.822 231.127 103.146C230.779 103.47 230.605 103.932 230.605 104.532C230.605 105.072 230.785 105.504 231.145 105.828C231.517 106.152 231.991 106.314 232.567 106.314C233.143 106.314 233.617 106.152 233.989 105.828C234.361 105.492 234.547 105.054 234.547 104.514ZM232.567 108.15C231.883 108.15 231.325 108.324 230.893 108.672C230.473 109.02 230.263 109.518 230.263 110.166C230.263 110.766 230.467 111.258 230.875 111.642C231.295 112.014 231.859 112.2 232.567 112.2C233.275 112.2 233.833 112.008 234.241 111.624C234.649 111.24 234.853 110.754 234.853 110.166C234.853 109.53 234.643 109.038 234.223 108.69C233.803 108.33 233.251 108.15 232.567 108.15ZM249.011 108.69H245.609V112.182H243.233V108.69H239.831V106.494H243.233V103.002H245.609V106.494H249.011V108.69Z" fill="#11CABE"/>
<path d="M209.918 142.718C209.918 141.494 210.194 140.396 210.746 139.424C211.298 138.44 212.048 137.672 212.996 137.12C213.956 136.568 215.018 136.292 216.182 136.292C217.55 136.292 218.744 136.622 219.764 137.282C220.784 137.942 221.528 138.878 221.996 140.09H220.034C219.686 139.334 219.182 138.752 218.522 138.344C217.874 137.936 217.094 137.732 216.182 137.732C215.306 137.732 214.52 137.936 213.824 138.344C213.128 138.752 212.582 139.334 212.186 140.09C211.79 140.834 211.592 141.71 211.592 142.718C211.592 143.714 211.79 144.59 212.186 145.346C212.582 146.09 213.128 146.666 213.824 147.074C214.52 147.482 215.306 147.686 216.182 147.686C217.094 147.686 217.874 147.488 218.522 147.092C219.182 146.684 219.686 146.102 220.034 145.346H221.996C221.528 146.546 220.784 147.476 219.764 148.136C218.744 148.784 217.55 149.108 216.182 149.108C215.018 149.108 213.956 148.838 212.996 148.298C212.048 147.746 211.298 146.984 210.746 146.012C210.194 145.04 209.918 143.942 209.918 142.718ZM228.736 149.162C227.812 149.162 226.972 148.952 226.216 148.532C225.472 148.112 224.884 147.518 224.452 146.75C224.032 145.97 223.822 145.07 223.822 144.05C223.822 143.042 224.038 142.154 224.47 141.386C224.914 140.606 225.514 140.012 226.27 139.604C227.026 139.184 227.872 138.974 228.808 138.974C229.744 138.974 230.59 139.184 231.346 139.604C232.102 140.012 232.696 140.6 233.128 141.368C233.572 142.136 233.794 143.03 233.794 144.05C233.794 145.07 233.566 145.97 233.11 146.75C232.666 147.518 232.06 148.112 231.292 148.532C230.524 148.952 229.672 149.162 228.736 149.162ZM228.736 147.722C229.324 147.722 229.876 147.584 230.392 147.308C230.908 147.032 231.322 146.618 231.634 146.066C231.958 145.514 232.12 144.842 232.12 144.05C232.12 143.258 231.964 142.586 231.652 142.034C231.34 141.482 230.932 141.074 230.428 140.81C229.924 140.534 229.378 140.396 228.79 140.396C228.19 140.396 227.638 140.534 227.134 140.81C226.642 141.074 226.246 141.482 225.946 142.034C225.646 142.586 225.496 143.258 225.496 144.05C225.496 144.854 225.64 145.532 225.928 146.084C226.228 146.636 226.624 147.05 227.116 147.326C227.608 147.59 228.148 147.722 228.736 147.722ZM244.696 139.136V149H243.058V147.542C242.746 148.046 242.308 148.442 241.744 148.73C241.192 149.006 240.58 149.144 239.908 149.144C239.14 149.144 238.45 148.988 237.838 148.676C237.226 148.352 236.74 147.872 236.38 147.236C236.032 146.6 235.858 145.826 235.858 144.914V139.136H237.478V144.698C237.478 145.67 237.724 146.42 238.216 146.948C238.708 147.464 239.38 147.722 240.232 147.722C241.108 147.722 241.798 147.452 242.302 146.912C242.806 146.372 243.058 145.586 243.058 144.554V139.136H244.696ZM252.267 138.956C253.467 138.956 254.439 139.322 255.183 140.054C255.927 140.774 256.299 141.818 256.299 143.186V149H254.679V143.42C254.679 142.436 254.433 141.686 253.941 141.17C253.449 140.642 252.777 140.378 251.925 140.378C251.061 140.378 250.371 140.648 249.855 141.188C249.351 141.728 249.099 142.514 249.099 143.546V149H247.461V139.136H249.099V140.54C249.423 140.036 249.861 139.646 250.413 139.37C250.977 139.094 251.595 138.956 252.267 138.956ZM260.973 140.486V146.3C260.973 146.78 261.075 147.122 261.279 147.326C261.483 147.518 261.837 147.614 262.341 147.614H263.547V149H262.071C261.159 149 260.475 148.79 260.019 148.37C259.563 147.95 259.335 147.26 259.335 146.3V140.486H258.057V139.136H259.335V136.652H260.973V139.136H263.547V140.486H260.973ZM267.17 140.738C267.458 140.174 267.866 139.736 268.394 139.424C268.934 139.112 269.588 138.956 270.356 138.956V140.648H269.924C268.088 140.648 267.17 141.644 267.17 143.636V149H265.532V139.136H267.17V140.738ZM273.092 137.534C272.78 137.534 272.516 137.426 272.3 137.21C272.084 136.994 271.976 136.73 271.976 136.418C271.976 136.106 272.084 135.842 272.3 135.626C272.516 135.41 272.78 135.302 273.092 135.302C273.392 135.302 273.644 135.41 273.848 135.626C274.064 135.842 274.172 136.106 274.172 136.418C274.172 136.73 274.064 136.994 273.848 137.21C273.644 137.426 273.392 137.534 273.092 137.534ZM273.884 139.136V149H272.246V139.136H273.884ZM285.676 143.69C285.676 144.002 285.658 144.332 285.622 144.68H277.738C277.798 145.652 278.128 146.414 278.728 146.966C279.34 147.506 280.078 147.776 280.942 147.776C281.65 147.776 282.238 147.614 282.706 147.29C283.186 146.954 283.522 146.51 283.714 145.958H285.478C285.214 146.906 284.686 147.68 283.894 148.28C283.102 148.868 282.118 149.162 280.942 149.162C280.006 149.162 279.166 148.952 278.422 148.532C277.69 148.112 277.114 147.518 276.694 146.75C276.274 145.97 276.064 145.07 276.064 144.05C276.064 143.03 276.268 142.136 276.676 141.368C277.084 140.6 277.654 140.012 278.386 139.604C279.13 139.184 279.982 138.974 280.942 138.974C281.878 138.974 282.706 139.178 283.426 139.586C284.146 139.994 284.698 140.558 285.082 141.278C285.478 141.986 285.676 142.79 285.676 143.69ZM283.984 143.348C283.984 142.724 283.846 142.19 283.57 141.746C283.294 141.29 282.916 140.948 282.436 140.72C281.968 140.48 281.446 140.36 280.87 140.36C280.042 140.36 279.334 140.624 278.746 141.152C278.17 141.68 277.84 142.412 277.756 143.348H283.984ZM291.33 149.162C290.574 149.162 289.896 149.036 289.296 148.784C288.696 148.52 288.222 148.16 287.874 147.704C287.526 147.236 287.334 146.702 287.298 146.102H288.99C289.038 146.594 289.266 146.996 289.674 147.308C290.094 147.62 290.64 147.776 291.312 147.776C291.936 147.776 292.428 147.638 292.788 147.362C293.148 147.086 293.328 146.738 293.328 146.318C293.328 145.886 293.136 145.568 292.752 145.364C292.368 145.148 291.774 144.938 290.97 144.734C290.238 144.542 289.638 144.35 289.17 144.158C288.714 143.954 288.318 143.66 287.982 143.276C287.658 142.88 287.496 142.364 287.496 141.728C287.496 141.224 287.646 140.762 287.946 140.342C288.246 139.922 288.672 139.592 289.224 139.352C289.776 139.1 290.406 138.974 291.114 138.974C292.206 138.974 293.088 139.25 293.76 139.802C294.432 140.354 294.792 141.11 294.84 142.07H293.202C293.166 141.554 292.956 141.14 292.572 140.828C292.2 140.516 291.696 140.36 291.06 140.36C290.472 140.36 290.004 140.486 289.656 140.738C289.308 140.99 289.134 141.32 289.134 141.728C289.134 142.052 289.236 142.322 289.44 142.538C289.656 142.742 289.92 142.91 290.232 143.042C290.556 143.162 291 143.3 291.564 143.456C292.272 143.648 292.848 143.84 293.292 144.032C293.736 144.212 294.114 144.488 294.426 144.86C294.75 145.232 294.918 145.718 294.93 146.318C294.93 146.858 294.78 147.344 294.48 147.776C294.18 148.208 293.754 148.55 293.202 148.802C292.662 149.042 292.038 149.162 291.33 149.162Z" fill="#A5ADCF"/>
<rect x="145.5" y="70.5" width="208" height="109" rx="11.5" stroke="url(#paint1_linear_3407_28420)"/>
</g>
<g filter="url(#filter1_d_3407_28420)">
<rect x="364" y="257" width="213" height="110" rx="12" fill="#23262F"/>
<path d="M414.667 295.667C414.341 293.32 413.252 291.146 411.569 289.479C409.886 287.812 407.701 286.745 405.352 286.442C403.002 286.139 400.618 286.617 398.567 287.802M393.333 287.667V293H398.667" stroke="#11CABE" stroke-width="1.5" stroke-linecap="round" stroke-linejoin="round"/>
<path d="M393.333 298.333C393.659 300.68 394.748 302.854 396.431 304.521C398.114 306.188 400.299 307.255 402.648 307.558C404.998 307.861 407.382 307.383 409.433 306.198M414.667 306.333V301H409.333" stroke="#11CABE" stroke-width="1.5" stroke-linecap="round" stroke-linejoin="round"/>
<path d="M436.99 291.334C437.05 290.134 437.47 289.21 438.25 288.562C439.042 287.902 440.08 287.572 441.364 287.572C442.24 287.572 442.99 287.728 443.614 288.04C444.238 288.34 444.706 288.754 445.018 289.282C445.342 289.798 445.504 290.386 445.504 291.046C445.504 291.802 445.306 292.444 444.91 292.972C444.526 293.488 444.064 293.836 443.524 294.016V294.088C444.22 294.304 444.76 294.688 445.144 295.24C445.54 295.792 445.738 296.5 445.738 297.364C445.738 298.084 445.57 298.726 445.234 299.29C444.91 299.854 444.424 300.298 443.776 300.622C443.14 300.934 442.372 301.09 441.472 301.09C440.116 301.09 439.012 300.748 438.16 300.064C437.308 299.38 436.858 298.372 436.81 297.04H439.258C439.282 297.628 439.48 298.102 439.852 298.462C440.236 298.81 440.758 298.984 441.418 298.984C442.03 298.984 442.498 298.816 442.822 298.48C443.158 298.132 443.326 297.688 443.326 297.148C443.326 296.428 443.098 295.912 442.642 295.6C442.186 295.288 441.478 295.132 440.518 295.132H439.996V293.062H440.518C442.222 293.062 443.074 292.492 443.074 291.352C443.074 290.836 442.918 290.434 442.606 290.146C442.306 289.858 441.868 289.714 441.292 289.714C440.728 289.714 440.29 289.87 439.978 290.182C439.678 290.482 439.504 290.866 439.456 291.334H436.99ZM456.549 290.056H450.717V293.134C450.969 292.822 451.329 292.57 451.797 292.378C452.265 292.174 452.763 292.072 453.291 292.072C454.251 292.072 455.037 292.282 455.649 292.702C456.261 293.122 456.705 293.662 456.981 294.322C457.257 294.97 457.395 295.666 457.395 296.41C457.395 297.79 456.999 298.9 456.207 299.74C455.427 300.58 454.311 301 452.859 301C451.491 301 450.399 300.658 449.583 299.974C448.767 299.29 448.305 298.396 448.197 297.292H450.645C450.753 297.772 450.993 298.156 451.365 298.444C451.749 298.732 452.235 298.876 452.823 298.876C453.531 298.876 454.065 298.654 454.425 298.21C454.785 297.766 454.965 297.178 454.965 296.446C454.965 295.702 454.779 295.138 454.407 294.754C454.047 294.358 453.513 294.16 452.805 294.16C452.301 294.16 451.881 294.286 451.545 294.538C451.209 294.79 450.969 295.126 450.825 295.546H448.413V287.842H456.549V290.056ZM459.313 294.268C459.313 292.192 459.685 290.566 460.429 289.39C461.185 288.214 462.433 287.626 464.173 287.626C465.913 287.626 467.155 288.214 467.899 289.39C468.655 290.566 469.033 292.192 469.033 294.268C469.033 296.356 468.655 297.994 467.899 299.182C467.155 300.37 465.913 300.964 464.173 300.964C462.433 300.964 461.185 300.37 460.429 299.182C459.685 297.994 459.313 296.356 459.313 294.268ZM466.549 294.268C466.549 293.38 466.489 292.636 466.369 292.036C466.261 291.424 466.033 290.926 465.685 290.542C465.349 290.158 464.845 289.966 464.173 289.966C463.501 289.966 462.991 290.158 462.643 290.542C462.307 290.926 462.079 291.424 461.959 292.036C461.851 292.636 461.797 293.38 461.797 294.268C461.797 295.18 461.851 295.948 461.959 296.572C462.067 297.184 462.295 297.682 462.643 298.066C462.991 298.438 463.501 298.624 464.173 298.624C464.845 298.624 465.355 298.438 465.703 298.066C466.051 297.682 466.279 297.184 466.387 296.572C466.495 295.948 466.549 295.18 466.549 294.268ZM480.652 295.69H477.25V299.182H474.874V295.69H471.472V293.494H474.874V290.002H477.25V293.494H480.652V295.69Z" fill="#11CABE"/>
<path d="M445.196 323.454V324.786H441.776V336H440.138V324.786H436.7V323.454H445.196ZM448.85 327.738C449.138 327.174 449.546 326.736 450.074 326.424C450.614 326.112 451.268 325.956 452.036 325.956V327.648H451.604C449.768 327.648 448.85 328.644 448.85 330.636V336H447.212V326.136H448.85V327.738ZM453.315 331.032C453.315 330.024 453.519 329.142 453.927 328.386C454.335 327.618 454.893 327.024 455.601 326.604C456.321 326.184 457.119 325.974 457.995 325.974C458.859 325.974 459.609 326.16 460.245 326.532C460.881 326.904 461.355 327.372 461.667 327.936V326.136H463.323V336H461.667V334.164C461.343 334.74 460.857 335.22 460.209 335.604C459.573 335.976 458.829 336.162 457.977 336.162C457.101 336.162 456.309 335.946 455.601 335.514C454.893 335.082 454.335 334.476 453.927 333.696C453.519 332.916 453.315 332.028 453.315 331.032ZM461.667 331.05C461.667 330.306 461.517 329.658 461.217 329.106C460.917 328.554 460.509 328.134 459.993 327.846C459.489 327.546 458.931 327.396 458.319 327.396C457.707 327.396 457.149 327.54 456.645 327.828C456.141 328.116 455.739 328.536 455.439 329.088C455.139 329.64 454.989 330.288 454.989 331.032C454.989 331.788 455.139 332.448 455.439 333.012C455.739 333.564 456.141 333.99 456.645 334.29C457.149 334.578 457.707 334.722 458.319 334.722C458.931 334.722 459.489 334.578 459.993 334.29C460.509 333.99 460.917 333.564 461.217 333.012C461.517 332.448 461.667 331.794 461.667 331.05ZM465.479 331.032C465.479 330.024 465.683 329.142 466.091 328.386C466.499 327.618 467.057 327.024 467.765 326.604C468.485 326.184 469.289 325.974 470.177 325.974C470.945 325.974 471.659 326.154 472.319 326.514C472.979 326.862 473.483 327.324 473.831 327.9V322.68H475.487V336H473.831V334.146C473.507 334.734 473.027 335.22 472.391 335.604C471.755 335.976 471.011 336.162 470.159 336.162C469.283 336.162 468.485 335.946 467.765 335.514C467.057 335.082 466.499 334.476 466.091 333.696C465.683 332.916 465.479 332.028 465.479 331.032ZM473.831 331.05C473.831 330.306 473.681 329.658 473.381 329.106C473.081 328.554 472.673 328.134 472.157 327.846C471.653 327.546 471.095 327.396 470.483 327.396C469.871 327.396 469.313 327.54 468.809 327.828C468.305 328.116 467.903 328.536 467.603 329.088C467.303 329.64 467.153 330.288 467.153 331.032C467.153 331.788 467.303 332.448 467.603 333.012C467.903 333.564 468.305 333.99 468.809 334.29C469.313 334.578 469.871 334.722 470.483 334.722C471.095 334.722 471.653 334.578 472.157 334.29C472.673 333.99 473.081 333.564 473.381 333.012C473.681 332.448 473.831 331.794 473.831 331.05ZM479.101 324.534C478.789 324.534 478.525 324.426 478.309 324.21C478.093 323.994 477.985 323.73 477.985 323.418C477.985 323.106 478.093 322.842 478.309 322.626C478.525 322.41 478.789 322.302 479.101 322.302C479.401 322.302 479.653 322.41 479.857 322.626C480.073 322.842 480.181 323.106 480.181 323.418C480.181 323.73 480.073 323.994 479.857 324.21C479.653 324.426 479.401 324.534 479.101 324.534ZM479.893 326.136V336H478.255V326.136H479.893ZM487.491 325.956C488.691 325.956 489.663 326.322 490.407 327.054C491.151 327.774 491.523 328.818 491.523 330.186V336H489.903V330.42C489.903 329.436 489.657 328.686 489.165 328.17C488.673 327.642 488.001 327.378 487.149 327.378C486.285 327.378 485.595 327.648 485.079 328.188C484.575 328.728 484.323 329.514 484.323 330.546V336H482.685V326.136H484.323V327.54C484.647 327.036 485.085 326.646 485.637 326.37C486.201 326.094 486.819 325.956 487.491 325.956ZM498.267 325.974C499.119 325.974 499.863 326.16 500.499 326.532C501.147 326.904 501.627 327.372 501.939 327.936V326.136H503.595V336.216C503.595 337.116 503.403 337.914 503.019 338.61C502.635 339.318 502.083 339.87 501.363 340.266C500.655 340.662 499.827 340.86 498.879 340.86C497.583 340.86 496.503 340.554 495.639 339.942C494.775 339.33 494.265 338.496 494.109 337.44H495.729C495.909 338.04 496.281 338.52 496.845 338.88C497.409 339.252 498.087 339.438 498.879 339.438C499.779 339.438 500.511 339.156 501.075 338.592C501.651 338.028 501.939 337.236 501.939 336.216V334.146C501.615 334.722 501.135 335.202 500.499 335.586C499.863 335.97 499.119 336.162 498.267 336.162C497.391 336.162 496.593 335.946 495.873 335.514C495.165 335.082 494.607 334.476 494.199 333.696C493.791 332.916 493.587 332.028 493.587 331.032C493.587 330.024 493.791 329.142 494.199 328.386C494.607 327.618 495.165 327.024 495.873 326.604C496.593 326.184 497.391 325.974 498.267 325.974ZM501.939 331.05C501.939 330.306 501.789 329.658 501.489 329.106C501.189 328.554 500.781 328.134 500.265 327.846C499.761 327.546 499.203 327.396 498.591 327.396C497.979 327.396 497.421 327.54 496.917 327.828C496.413 328.116 496.011 328.536 495.711 329.088C495.411 329.64 495.261 330.288 495.261 331.032C495.261 331.788 495.411 332.448 495.711 333.012C496.011 333.564 496.413 333.99 496.917 334.29C497.421 334.578 497.979 334.722 498.591 334.722C499.203 334.722 499.761 334.578 500.265 334.29C500.781 333.99 501.189 333.564 501.489 333.012C501.789 332.448 501.939 331.794 501.939 331.05ZM519.549 327.126C519.549 328.17 519.189 329.04 518.469 329.736C517.761 330.42 516.675 330.762 515.211 330.762H512.799V336H511.161V323.454H515.211C516.627 323.454 517.701 323.796 518.433 324.48C519.177 325.164 519.549 326.046 519.549 327.126ZM515.211 329.412C516.123 329.412 516.795 329.214 517.227 328.818C517.659 328.422 517.875 327.858 517.875 327.126C517.875 325.578 516.987 324.804 515.211 324.804H512.799V329.412H515.211ZM520.973 331.032C520.973 330.024 521.177 329.142 521.585 328.386C521.993 327.618 522.551 327.024 523.259 326.604C523.979 326.184 524.777 325.974 525.653 325.974C526.517 325.974 527.267 326.16 527.903 326.532C528.539 326.904 529.013 327.372 529.325 327.936V326.136H530.981V336H529.325V334.164C529.001 334.74 528.515 335.22 527.867 335.604C527.231 335.976 526.487 336.162 525.635 336.162C524.759 336.162 523.967 335.946 523.259 335.514C522.551 335.082 521.993 334.476 521.585 333.696C521.177 332.916 520.973 332.028 520.973 331.032ZM529.325 331.05C529.325 330.306 529.175 329.658 528.875 329.106C528.575 328.554 528.167 328.134 527.651 327.846C527.147 327.546 526.589 327.396 525.977 327.396C525.365 327.396 524.807 327.54 524.303 327.828C523.799 328.116 523.397 328.536 523.097 329.088C522.797 329.64 522.647 330.288 522.647 331.032C522.647 331.788 522.797 332.448 523.097 333.012C523.397 333.564 523.799 333.99 524.303 334.29C524.807 334.578 525.365 334.722 525.977 334.722C526.589 334.722 527.147 334.578 527.651 334.29C528.167 333.99 528.575 333.564 528.875 333.012C529.175 332.448 529.325 331.794 529.325 331.05ZM534.595 324.534C534.283 324.534 534.019 324.426 533.803 324.21C533.587 323.994 533.479 323.73 533.479 323.418C533.479 323.106 533.587 322.842 533.803 322.626C534.019 322.41 534.283 322.302 534.595 322.302C534.895 322.302 535.147 322.41 535.351 322.626C535.567 322.842 535.675 323.106 535.675 323.418C535.675 323.73 535.567 323.994 535.351 324.21C535.147 324.426 534.895 324.534 534.595 324.534ZM535.387 326.136V336H533.749V326.136H535.387ZM539.817 327.738C540.105 327.174 540.513 326.736 541.041 326.424C541.581 326.112 542.235 325.956 543.003 325.956V327.648H542.571C540.735 327.648 539.817 328.644 539.817 330.636V336H538.179V326.136H539.817V327.738ZM548.386 336.162C547.63 336.162 546.952 336.036 546.352 335.784C545.752 335.52 545.278 335.16 544.93 334.704C544.582 334.236 544.39 333.702 544.354 333.102H546.046C546.094 333.594 546.322 333.996 546.73 334.308C547.15 334.62 547.696 334.776 548.368 334.776C548.992 334.776 549.484 334.638 549.844 334.362C550.204 334.086 550.384 333.738 550.384 333.318C550.384 332.886 550.192 332.568 549.808 332.364C549.424 332.148 548.83 331.938 548.026 331.734C547.294 331.542 546.694 331.35 546.226 331.158C545.77 330.954 545.374 330.66 545.038 330.276C544.714 329.88 544.552 329.364 544.552 328.728C544.552 328.224 544.702 327.762 545.002 327.342C545.302 326.922 545.728 326.592 546.28 326.352C546.832 326.1 547.462 325.974 548.17 325.974C549.262 325.974 550.144 326.25 550.816 326.802C551.488 327.354 551.848 328.11 551.896 329.07H550.258C550.222 328.554 550.012 328.14 549.628 327.828C549.256 327.516 548.752 327.36 548.116 327.36C547.528 327.36 547.06 327.486 546.712 327.738C546.364 327.99 546.19 328.32 546.19 328.728C546.19 329.052 546.292 329.322 546.496 329.538C546.712 329.742 546.976 329.91 547.288 330.042C547.612 330.162 548.056 330.3 548.62 330.456C549.328 330.648 549.904 330.84 550.348 331.032C550.792 331.212 551.17 331.488 551.482 331.86C551.806 332.232 551.974 332.718 551.986 333.318C551.986 333.858 551.836 334.344 551.536 334.776C551.236 335.208 550.81 335.55 550.258 335.802C549.718 336.042 549.094 336.162 548.386 336.162Z" fill="#A5ADCF"/>
<rect x="364.5" y="257.5" width="212" height="109" rx="11.5" stroke="url(#paint2_linear_3407_28420)"/>
</g>
<g filter="url(#filter2_d_3407_28420)">
<rect x="104" y="335" width="197" height="110" rx="12" fill="#23262F"/>
<path fill-rule="evenodd" clip-rule="evenodd" d="M141.17 379.275C136.045 379.275 131.667 380.05 131.667 383.154C131.667 386.256 136.017 387.06 141.17 387.06C146.295 387.06 150.673 386.284 150.673 383.182C150.673 380.079 146.323 379.275 141.17 379.275Z" stroke="#11CABE" stroke-width="1.5" stroke-linecap="round" stroke-linejoin="round"/>
<path fill-rule="evenodd" clip-rule="evenodd" d="M141.17 374.848C144.551 374.848 147.261 372.137 147.261 368.757C147.261 365.376 144.551 362.667 141.17 362.667C137.79 362.667 135.079 365.376 135.079 368.757C135.079 372.137 137.79 374.848 141.17 374.848Z" stroke="#11CABE" stroke-width="1.5" stroke-linecap="round" stroke-linejoin="round"/>
<path d="M153.606 370.559V375.905" stroke="#11CABE" stroke-width="1.5" stroke-linecap="round" stroke-linejoin="round"/>
<path d="M156.333 373.232H150.88" stroke="#11CABE" stroke-width="1.5" stroke-linecap="round" stroke-linejoin="round"/>
<path d="M177.746 376.156C178.898 375.196 179.816 374.398 180.5 373.762C181.184 373.114 181.754 372.442 182.21 371.746C182.666 371.05 182.894 370.366 182.894 369.694C182.894 369.082 182.75 368.602 182.462 368.254C182.174 367.906 181.73 367.732 181.13 367.732C180.53 367.732 180.068 367.936 179.744 368.344C179.42 368.74 179.252 369.286 179.24 369.982H176.792C176.84 368.542 177.266 367.45 178.07 366.706C178.886 365.962 179.918 365.59 181.166 365.59C182.534 365.59 183.584 365.956 184.316 366.688C185.048 367.408 185.414 368.362 185.414 369.55C185.414 370.486 185.162 371.38 184.658 372.232C184.154 373.084 183.578 373.828 182.93 374.464C182.282 375.088 181.436 375.844 180.392 376.732H185.702V378.82H176.81V376.948L177.746 376.156ZM187.29 372.268C187.29 370.192 187.662 368.566 188.406 367.39C189.162 366.214 190.41 365.626 192.15 365.626C193.89 365.626 195.132 366.214 195.876 367.39C196.632 368.566 197.01 370.192 197.01 372.268C197.01 374.356 196.632 375.994 195.876 377.182C195.132 378.37 193.89 378.964 192.15 378.964C190.41 378.964 189.162 378.37 188.406 377.182C187.662 375.994 187.29 374.356 187.29 372.268ZM194.526 372.268C194.526 371.38 194.466 370.636 194.346 370.036C194.238 369.424 194.01 368.926 193.662 368.542C193.326 368.158 192.822 367.966 192.15 367.966C191.478 367.966 190.968 368.158 190.62 368.542C190.284 368.926 190.056 369.424 189.936 370.036C189.828 370.636 189.774 371.38 189.774 372.268C189.774 373.18 189.828 373.948 189.936 374.572C190.044 375.184 190.272 375.682 190.62 376.066C190.968 376.438 191.478 376.624 192.15 376.624C192.822 376.624 193.332 376.438 193.68 376.066C194.028 375.682 194.256 375.184 194.364 374.572C194.472 373.948 194.526 373.18 194.526 372.268ZM215.888 368.884C217.112 368.884 218.096 369.262 218.84 370.018C219.596 370.762 219.974 371.806 219.974 373.15V379H217.454V373.492C217.454 372.712 217.256 372.118 216.86 371.71C216.464 371.29 215.924 371.08 215.24 371.08C214.556 371.08 214.01 371.29 213.602 371.71C213.206 372.118 213.008 372.712 213.008 373.492V379H210.488V373.492C210.488 372.712 210.29 372.118 209.894 371.71C209.498 371.29 208.958 371.08 208.274 371.08C207.578 371.08 207.026 371.29 206.618 371.71C206.222 372.118 206.024 372.712 206.024 373.492V379H203.504V369.028H206.024V370.234C206.348 369.814 206.762 369.484 207.266 369.244C207.782 369.004 208.346 368.884 208.958 368.884C209.738 368.884 210.434 369.052 211.046 369.388C211.658 369.712 212.132 370.18 212.468 370.792C212.792 370.216 213.26 369.754 213.872 369.406C214.496 369.058 215.168 368.884 215.888 368.884ZM223.643 367.84C223.199 367.84 222.827 367.702 222.527 367.426C222.239 367.138 222.095 366.784 222.095 366.364C222.095 365.944 222.239 365.596 222.527 365.32C222.827 365.032 223.199 364.888 223.643 364.888C224.087 364.888 224.453 365.032 224.741 365.32C225.041 365.596 225.191 365.944 225.191 366.364C225.191 366.784 225.041 367.138 224.741 367.426C224.453 367.702 224.087 367.84 223.643 367.84ZM224.885 369.028V379H222.365V369.028H224.885ZM229.895 365.68V379H227.375V365.68H229.895ZM234.905 365.68V379H232.385V365.68H234.905ZM238.672 367.84C238.228 367.84 237.856 367.702 237.556 367.426C237.268 367.138 237.124 366.784 237.124 366.364C237.124 365.944 237.268 365.596 237.556 365.32C237.856 365.032 238.228 364.888 238.672 364.888C239.116 364.888 239.482 365.032 239.77 365.32C240.07 365.596 240.22 365.944 240.22 366.364C240.22 366.784 240.07 367.138 239.77 367.426C239.482 367.702 239.116 367.84 238.672 367.84ZM239.914 369.028V379H237.394V369.028H239.914ZM246.832 379.162C245.872 379.162 245.008 378.952 244.24 378.532C243.472 378.1 242.866 377.494 242.422 376.714C241.99 375.934 241.774 375.034 241.774 374.014C241.774 372.994 241.996 372.094 242.44 371.314C242.896 370.534 243.514 369.934 244.294 369.514C245.074 369.082 245.944 368.866 246.904 368.866C247.864 368.866 248.734 369.082 249.514 369.514C250.294 369.934 250.906 370.534 251.35 371.314C251.806 372.094 252.034 372.994 252.034 374.014C252.034 375.034 251.8 375.934 251.332 376.714C250.876 377.494 250.252 378.1 249.46 378.532C248.68 378.952 247.804 379.162 246.832 379.162ZM246.832 376.966C247.288 376.966 247.714 376.858 248.11 376.642C248.518 376.414 248.842 376.078 249.082 375.634C249.322 375.19 249.442 374.65 249.442 374.014C249.442 373.066 249.19 372.34 248.686 371.836C248.194 371.32 247.588 371.062 246.868 371.062C246.148 371.062 245.542 371.32 245.05 371.836C244.57 372.34 244.33 373.066 244.33 374.014C244.33 374.962 244.564 375.694 245.032 376.21C245.512 376.714 246.112 376.966 246.832 376.966ZM259.409 368.884C260.597 368.884 261.557 369.262 262.289 370.018C263.021 370.762 263.387 371.806 263.387 373.15V379H260.867V373.492C260.867 372.7 260.669 372.094 260.273 371.674C259.877 371.242 259.337 371.026 258.653 371.026C257.957 371.026 257.405 371.242 256.997 371.674C256.601 372.094 256.403 372.7 256.403 373.492V379H253.883V369.028H256.403V370.27C256.739 369.838 257.165 369.502 257.681 369.262C258.209 369.01 258.785 368.884 259.409 368.884ZM275.197 373.69H271.795V377.182H269.419V373.69H266.017V371.494H269.419V368.002H271.795V371.494H275.197V373.69Z" fill="#11CABE"/>
<path d="M185.577 401.454V402.786H182.157V414H180.519V402.786H177.081V401.454H185.577ZM189.231 405.738C189.519 405.174 189.927 404.736 190.455 404.424C190.995 404.112 191.649 403.956 192.417 403.956V405.648H191.985C190.149 405.648 189.231 406.644 189.231 408.636V414H187.593V404.136H189.231V405.738ZM193.696 409.032C193.696 408.024 193.9 407.142 194.308 406.386C194.716 405.618 195.274 405.024 195.982 404.604C196.702 404.184 197.5 403.974 198.376 403.974C199.24 403.974 199.99 404.16 200.626 404.532C201.262 404.904 201.736 405.372 202.048 405.936V404.136H203.704V414H202.048V412.164C201.724 412.74 201.238 413.22 200.59 413.604C199.954 413.976 199.21 414.162 198.358 414.162C197.482 414.162 196.69 413.946 195.982 413.514C195.274 413.082 194.716 412.476 194.308 411.696C193.9 410.916 193.696 410.028 193.696 409.032ZM202.048 409.05C202.048 408.306 201.898 407.658 201.598 407.106C201.298 406.554 200.89 406.134 200.374 405.846C199.87 405.546 199.312 405.396 198.7 405.396C198.088 405.396 197.53 405.54 197.026 405.828C196.522 406.116 196.12 406.536 195.82 407.088C195.52 407.64 195.37 408.288 195.37 409.032C195.37 409.788 195.52 410.448 195.82 411.012C196.12 411.564 196.522 411.99 197.026 412.29C197.53 412.578 198.088 412.722 198.7 412.722C199.312 412.722 199.87 412.578 200.374 412.29C200.89 411.99 201.298 411.564 201.598 411.012C201.898 410.448 202.048 409.794 202.048 409.05ZM205.86 409.032C205.86 408.024 206.064 407.142 206.472 406.386C206.88 405.618 207.438 405.024 208.146 404.604C208.866 404.184 209.67 403.974 210.558 403.974C211.326 403.974 212.04 404.154 212.7 404.514C213.36 404.862 213.864 405.324 214.212 405.9V400.68H215.868V414H214.212V412.146C213.888 412.734 213.408 413.22 212.772 413.604C212.136 413.976 211.392 414.162 210.54 414.162C209.664 414.162 208.866 413.946 208.146 413.514C207.438 413.082 206.88 412.476 206.472 411.696C206.064 410.916 205.86 410.028 205.86 409.032ZM214.212 409.05C214.212 408.306 214.062 407.658 213.762 407.106C213.462 406.554 213.054 406.134 212.538 405.846C212.034 405.546 211.476 405.396 210.864 405.396C210.252 405.396 209.694 405.54 209.19 405.828C208.686 406.116 208.284 406.536 207.984 407.088C207.684 407.64 207.534 408.288 207.534 409.032C207.534 409.788 207.684 410.448 207.984 411.012C208.284 411.564 208.686 411.99 209.19 412.29C209.694 412.578 210.252 412.722 210.864 412.722C211.476 412.722 212.034 412.578 212.538 412.29C213.054 411.99 213.462 411.564 213.762 411.012C214.062 410.448 214.212 409.794 214.212 409.05ZM227.636 408.69C227.636 409.002 227.618 409.332 227.582 409.68H219.698C219.758 410.652 220.088 411.414 220.688 411.966C221.3 412.506 222.038 412.776 222.902 412.776C223.61 412.776 224.198 412.614 224.666 412.29C225.146 411.954 225.482 411.51 225.674 410.958H227.438C227.174 411.906 226.646 412.68 225.854 413.28C225.062 413.868 224.078 414.162 222.902 414.162C221.966 414.162 221.126 413.952 220.382 413.532C219.65 413.112 219.074 412.518 218.654 411.75C218.234 410.97 218.024 410.07 218.024 409.05C218.024 408.03 218.228 407.136 218.636 406.368C219.044 405.6 219.614 405.012 220.346 404.604C221.09 404.184 221.942 403.974 222.902 403.974C223.838 403.974 224.666 404.178 225.386 404.586C226.106 404.994 226.658 405.558 227.042 406.278C227.438 406.986 227.636 407.79 227.636 408.69ZM225.944 408.348C225.944 407.724 225.806 407.19 225.53 406.746C225.254 406.29 224.876 405.948 224.396 405.72C223.928 405.48 223.406 405.36 222.83 405.36C222.002 405.36 221.294 405.624 220.706 406.152C220.13 406.68 219.8 407.412 219.716 408.348H225.944ZM231.436 405.738C231.724 405.174 232.132 404.736 232.66 404.424C233.2 404.112 233.854 403.956 234.622 403.956V405.648H234.19C232.354 405.648 231.436 406.644 231.436 408.636V414H229.798V404.136H231.436V405.738ZM240.005 414.162C239.249 414.162 238.571 414.036 237.971 413.784C237.371 413.52 236.897 413.16 236.549 412.704C236.201 412.236 236.009 411.702 235.973 411.102H237.665C237.713 411.594 237.941 411.996 238.349 412.308C238.769 412.62 239.315 412.776 239.987 412.776C240.611 412.776 241.103 412.638 241.463 412.362C241.823 412.086 242.003 411.738 242.003 411.318C242.003 410.886 241.811 410.568 241.427 410.364C241.043 410.148 240.449 409.938 239.645 409.734C238.913 409.542 238.313 409.35 237.845 409.158C237.389 408.954 236.993 408.66 236.657 408.276C236.333 407.88 236.171 407.364 236.171 406.728C236.171 406.224 236.321 405.762 236.621 405.342C236.921 404.922 237.347 404.592 237.899 404.352C238.451 404.1 239.081 403.974 239.789 403.974C240.881 403.974 241.763 404.25 242.435 404.802C243.107 405.354 243.467 406.11 243.515 407.07H241.877C241.841 406.554 241.631 406.14 241.247 405.828C240.875 405.516 240.371 405.36 239.735 405.36C239.147 405.36 238.679 405.486 238.331 405.738C237.983 405.99 237.809 406.32 237.809 406.728C237.809 407.052 237.911 407.322 238.115 407.538C238.331 407.742 238.595 407.91 238.907 408.042C239.231 408.162 239.675 408.3 240.239 408.456C240.947 408.648 241.523 408.84 241.967 409.032C242.411 409.212 242.789 409.488 243.101 409.86C243.425 410.232 243.593 410.718 243.605 411.318C243.605 411.858 243.455 412.344 243.155 412.776C242.855 413.208 242.429 413.55 241.877 413.802C241.337 414.042 240.713 414.162 240.005 414.162Z" fill="#A5ADCF"/>
<rect x="104.5" y="335.5" width="196" height="109" rx="11.5" stroke="url(#paint3_linear_3407_28420)"/>
</g>
<circle cx="162.188" cy="450.188" r="41.2352" transform="rotate(-23.3151 162.188 450.188)" fill="#34384C"/>
<g clip-path="url(#clip0_3407_28420)">
<circle cx="161.694" cy="451.451" r="28.7741" transform="rotate(-23.3151 161.694 451.451)" fill="#7F6EE9"/>
<path d="M153.763 431.437L153.771 431.456C153.83 431.541 153.879 431.654 153.927 431.767L159.757 445.293C159.77 445.376 159.722 445.419 159.682 445.481C159.369 445.839 159.066 446.169 158.745 446.508C158.306 446.986 157.857 447.491 157.418 447.97L155.836 449.719C155.397 450.198 154.958 450.676 154.538 451.146C154.029 451.721 153.494 452.286 152.985 452.861C152.547 453.339 152.116 453.836 151.658 454.323C151.297 454.723 150.927 455.105 150.585 455.497C150.555 455.532 150.526 455.567 150.488 455.583C150.469 455.591 150.469 455.591 150.443 455.581L150.585 454.518C150.866 452.484 151.135 450.477 151.415 448.443C151.703 446.273 152.01 444.094 152.298 441.923C152.568 439.916 152.856 437.901 153.125 435.894C153.318 434.432 153.53 432.961 153.723 431.499C153.725 431.453 153.736 431.426 153.72 431.389L153.739 431.381C153.728 431.408 153.755 431.418 153.763 431.437Z" fill="#F3F3F3"/>
<path d="M173.536 445.628L173.563 445.639L171.509 448.459L165.049 457.317C165.019 457.352 164.99 457.387 164.979 457.413C164.923 457.438 164.898 457.381 164.89 457.363L164.818 457.194L159.821 445.599C159.796 445.543 159.764 445.468 159.759 445.404C159.745 445.321 159.809 445.315 159.874 445.31C160.166 445.317 160.477 445.316 160.77 445.324C161.647 445.346 162.524 445.369 163.393 445.372C164.152 445.379 164.901 445.412 165.66 445.419C166.419 445.425 167.187 445.45 167.946 445.457C168.595 445.466 169.271 445.486 169.92 445.496C170.569 445.505 171.245 445.525 171.894 445.535C172.407 445.536 172.927 445.557 173.44 445.558C173.464 445.615 173.491 445.625 173.536 445.628Z" fill="#8A8DA7"/>
<path d="M169.981 469.073C169.989 469.091 169.979 469.118 169.987 469.137L169.968 469.145C169.952 469.108 169.906 469.105 169.871 469.075C168.005 467.945 166.13 466.795 164.263 465.664C162.362 464.504 160.433 463.333 158.532 462.172C156.692 461.052 154.825 459.921 152.986 458.801C152.499 458.499 152.021 458.215 151.535 457.913C151.5 457.884 151.473 457.873 151.412 457.833C151.468 457.809 151.522 457.83 151.548 457.841C153.593 458.094 155.619 458.356 157.663 458.609C160.017 458.907 162.351 459.214 164.704 459.512L165.903 459.663C165.957 459.684 165.973 459.722 165.99 459.759L169.887 468.802C169.927 468.896 169.968 468.989 169.981 469.073Z" fill="#F3F3F3"/>
<path d="M150.439 455.628L150.431 455.609C150.918 455.087 151.378 454.555 151.865 454.034C152.481 453.346 153.104 452.677 153.72 451.989C154.188 451.475 154.667 450.935 155.136 450.422C155.829 449.656 156.512 448.917 157.205 448.151C157.673 447.638 158.142 447.124 158.621 446.584C158.952 446.219 159.303 445.845 159.635 445.48C159.664 445.445 159.713 445.402 159.715 445.356C159.734 445.348 159.742 445.367 159.731 445.394L164.866 457.307C164.89 457.363 164.896 457.428 164.949 457.449C164.936 457.521 164.874 457.481 164.847 457.471C164.638 457.45 164.429 457.429 164.211 457.389C159.669 456.811 155.099 456.222 150.557 455.643C150.53 455.633 150.484 455.63 150.439 455.628Z" fill="#C5C8D9"/>
<path d="M174.469 447.895L174.488 447.887C174.504 447.925 174.482 447.979 174.48 448.024C173.122 454.371 171.772 460.737 170.414 467.084C170.276 467.744 170.119 468.412 169.981 469.072C169.954 469.061 169.946 469.043 169.938 469.024L169.89 468.911L165.968 459.812L165.895 459.643C166.481 458.835 167.056 458.053 167.642 457.244C169.905 454.133 172.176 451.041 174.421 447.938C174.447 447.949 174.458 447.922 174.469 447.895Z" fill="#C5C8D9"/>
<path d="M159.75 445.385L159.734 445.348L159.686 445.235L153.815 431.615C153.791 431.558 153.756 431.529 153.77 431.457C160.303 436.138 166.828 440.8 173.343 445.489C173.404 445.529 173.493 445.58 173.544 445.647C173.241 445.666 172.941 445.64 172.648 445.633C172.291 445.631 171.908 445.618 171.551 445.616C171.323 445.603 171.084 445.617 170.856 445.604C170.473 445.592 170.097 445.598 169.713 445.585C169.494 445.591 169.265 445.578 169.037 445.565L167.557 445.536C167.31 445.531 167.063 445.526 166.798 445.529L165.727 445.523C165.507 445.529 165.279 445.516 165.051 445.503L163.57 445.474C163.324 445.469 163.077 445.464 162.811 445.468L161.741 445.462C161.494 445.457 161.266 445.444 161.019 445.439C160.59 445.424 160.161 445.409 159.721 445.42C159.769 445.377 159.75 445.385 159.75 445.385Z" fill="#C5C8D9"/>
</g>
<circle cx="140.254" cy="179.254" r="21.5" transform="rotate(-23.3151 140.254 179.254)" fill="#34384C"/>
<g clip-path="url(#clip1_3407_28420)">
<circle cx="139.996" cy="179.913" r="15.0028" transform="rotate(-23.3151 139.996 179.913)" fill="white"/>
<path fill-rule="evenodd" clip-rule="evenodd" d="M145.934 193.69C138.324 196.97 129.498 193.46 126.218 185.85C122.939 178.241 126.449 169.414 134.058 166.135C141.668 162.855 150.494 166.365 153.774 173.975C157.053 181.584 153.544 190.411 145.934 193.69ZM146.764 180.216C145.827 178.044 143.942 177.401 140.437 178.005L138.789 174.182C139.858 173.96 140.979 173.978 142.184 174.246L142.54 171.851C141.023 171.503 139.442 171.559 137.954 172.014L137.434 170.806L135.617 171.589L136.12 172.756C133.596 174.083 132.462 176.337 133.399 178.509C134.379 180.783 136.275 181.277 139.654 180.728L141.354 184.672C139.909 185.055 138.522 184.937 136.932 184.525L136.384 186.932C138.29 187.416 140.291 187.371 142.172 186.8L143.039 188.812L144.856 188.029L143.998 186.037C146.554 184.672 147.718 182.429 146.764 180.216ZM138.604 178.294C136.797 178.524 136.167 178.152 135.802 177.306C135.421 176.422 135.807 175.42 137.079 174.752L138.604 178.294ZM144.36 181.419C144.776 182.385 144.311 183.373 143.038 184.041L141.469 180.399C143.298 180.16 143.97 180.514 144.36 181.42L144.36 181.419Z" fill="#1E68F6"/>
</g>
<circle cx="341.254" cy="86.254" r="21.5" transform="rotate(-23.3151 341.254 86.254)" fill="#34384C"/>
<g clip-path="url(#clip2_3407_28420)">
<circle cx="340.996" cy="86.9125" r="15.0028" transform="rotate(-23.3151 340.996 86.9125)" fill="#25292C"/>
<path d="M343.214 76.4265L345.537 75.4252L343.194 83.2895C342.345 86.1363 339.506 87.3597 336.852 86.0226L329.524 82.3265L331.849 81.3245L337.415 84.1326C338.225 84.5389 339.1 84.5851 339.851 84.2612C340.603 83.9374 341.17 83.2695 341.431 82.4019L343.214 76.4265Z" fill="white"/>
<path d="M338.747 97.4112L336.423 98.4131L338.782 90.4997C339.631 87.6528 342.47 86.4294 345.124 87.7666L352.497 91.4856L350.173 92.4868L344.561 89.6566C343.751 89.2503 342.876 89.2041 342.125 89.528C341.373 89.8518 340.806 90.5197 340.545 91.3873L338.747 97.4112Z" fill="white"/>
</g>
<circle cx="376.5" cy="487.5" r="21.5" fill="#34384C"/>
<path d="M390.979 487.997C390.979 496.242 384.296 502.926 376.051 502.926C367.806 502.926 361.123 496.242 361.123 487.997C361.123 479.753 367.806 473.069 376.051 473.069C384.296 473.069 390.979 479.753 390.979 487.997Z" fill="#1BA27A"/>
<path d="M383.058 480.597H368.922V484.009H374.284V489.025H377.696V484.009H383.058V480.597Z" fill="white"/>
<path d="M376.022 489.559C371.587 489.559 367.991 488.858 367.991 487.992C367.991 487.126 371.587 486.424 376.022 486.424C380.457 486.424 384.053 487.126 384.053 487.992C384.053 488.858 380.457 489.559 376.022 489.559ZM385.04 488.253C385.04 487.136 381.002 486.231 376.022 486.231C371.042 486.231 367.005 487.136 367.005 488.253C367.005 489.236 370.135 490.055 374.284 490.237V497.437H377.696V490.24C381.876 490.064 385.04 489.241 385.04 488.253Z" fill="white"/>
<circle cx="410" cy="170" r="30" fill="#34384C"/>
<g clip-path="url(#clip3_3407_28420)">
<path d="M429.614 175.764C426.817 186.985 415.449 193.806 404.244 191.009C393.023 188.212 386.202 176.844 389 165.639C391.797 154.419 403.148 147.598 414.369 150.395C425.574 153.176 432.412 164.543 429.614 175.764Z" fill="url(#paint4_linear_3407_28420)"/>
<path d="M419.273 168.093C419.682 165.312 417.573 163.808 414.661 162.81L415.61 159.032L413.32 158.46L412.404 162.14C411.799 161.992 411.178 161.845 410.556 161.714L411.472 158.018L409.183 157.446L408.25 161.207C407.743 161.093 407.253 160.978 406.778 160.864V160.848L403.606 160.063L403 162.516C403 162.516 404.701 162.908 404.669 162.925C405.601 163.154 405.764 163.775 405.732 164.266L404.652 168.567C404.718 168.583 404.8 168.6 404.898 168.649C404.816 168.632 404.734 168.616 404.652 168.583L403.148 174.602C403.033 174.88 402.739 175.305 402.101 175.142C402.117 175.174 400.433 174.733 400.433 174.733L399.288 177.366L402.281 178.118C402.837 178.265 403.377 178.396 403.916 178.543L402.968 182.354L405.257 182.927L406.206 179.149C406.828 179.312 407.449 179.476 408.038 179.623L407.106 183.384L409.395 183.957L410.344 180.146C414.269 180.882 417.213 180.588 418.439 177.039C419.437 174.193 418.39 172.541 416.33 171.462C417.851 171.118 418.979 170.121 419.273 168.093ZM414.024 175.452C413.32 178.298 408.512 176.761 406.958 176.368L408.218 171.315C409.771 171.707 414.776 172.476 414.024 175.452ZM414.743 168.044C414.089 170.644 410.098 169.319 408.806 168.992L409.951 164.413C411.243 164.74 415.414 165.345 414.743 168.044Z" fill="white"/>
</g>
<defs>
<filter id="filter0_d_3407_28420" x="41" y="0" width="417" height="318" filterUnits="userSpaceOnUse" color-interpolation-filters="sRGB">
<feFlood flood-opacity="0" result="BackgroundImageFix"/>
<feColorMatrix in="SourceAlpha" type="matrix" values="0 0 0 0 0 0 0 0 0 0 0 0 0 0 0 0 0 0 127 0" result="hardAlpha"/>
<feOffset dy="34"/>
<feGaussianBlur stdDeviation="52"/>
<feColorMatrix type="matrix" values="0 0 0 0 0.0625 0 0 0 0 0.0625 0 0 0 0 0.0625 0 0 0 0.85 0"/>
<feBlend mode="normal" in2="BackgroundImageFix" result="effect1_dropShadow_3407_28420"/>
<feBlend mode="normal" in="SourceGraphic" in2="effect1_dropShadow_3407_28420" result="shape"/>
</filter>
<filter id="filter1_d_3407_28420" x="260" y="187" width="421" height="318" filterUnits="userSpaceOnUse" color-interpolation-filters="sRGB">
<feFlood flood-opacity="0" result="BackgroundImageFix"/>
<feColorMatrix in="SourceAlpha" type="matrix" values="0 0 0 0 0 0 0 0 0 0 0 0 0 0 0 0 0 0 127 0" result="hardAlpha"/>
<feOffset dy="34"/>
<feGaussianBlur stdDeviation="52"/>
<feColorMatrix type="matrix" values="0 0 0 0 0.0625 0 0 0 0 0.0625 0 0 0 0 0.0625 0 0 0 0.85 0"/>
<feBlend mode="normal" in2="BackgroundImageFix" result="effect1_dropShadow_3407_28420"/>
<feBlend mode="normal" in="SourceGraphic" in2="effect1_dropShadow_3407_28420" result="shape"/>
</filter>
<filter id="filter2_d_3407_28420" x="0" y="265" width="405" height="318" filterUnits="userSpaceOnUse" color-interpolation-filters="sRGB">
<feFlood flood-opacity="0" result="BackgroundImageFix"/>
<feColorMatrix in="SourceAlpha" type="matrix" values="0 0 0 0 0 0 0 0 0 0 0 0 0 0 0 0 0 0 127 0" result="hardAlpha"/>
<feOffset dy="34"/>
<feGaussianBlur stdDeviation="52"/>
<feColorMatrix type="matrix" values="0 0 0 0 0.0625 0 0 0 0 0.0625 0 0 0 0 0.0625 0 0 0 0.85 0"/>
<feBlend mode="normal" in2="BackgroundImageFix" result="effect1_dropShadow_3407_28420"/>
<feBlend mode="normal" in="SourceGraphic" in2="effect1_dropShadow_3407_28420" result="shape"/>
</filter>
<radialGradient id="paint0_radial_3407_28420" cx="0" cy="0" r="1" gradientUnits="userSpaceOnUse" gradientTransform="translate(357 318) rotate(-86.6753) scale(241.406)">
<stop offset="0.499387" stop-color="#0B1A46" stop-opacity="0"/>
<stop offset="1" stop-color="#050B1F" stop-opacity="0.38"/>
</radialGradient>
<linearGradient id="paint1_linear_3407_28420" x1="354" y1="180" x2="300.65" y2="83.4611" gradientUnits="userSpaceOnUse">
<stop stop-color="#333649"/>
<stop offset="1" stop-color="#252632" stop-opacity="0"/>
</linearGradient>
<linearGradient id="paint2_linear_3407_28420" x1="577" y1="367" x2="524.192" y2="269.613" gradientUnits="userSpaceOnUse">
<stop stop-color="#333649"/>
<stop offset="1" stop-color="#252632" stop-opacity="0"/>
</linearGradient>
<linearGradient id="paint3_linear_3407_28420" x1="301" y1="445" x2="246.015" y2="351.216" gradientUnits="userSpaceOnUse">
<stop stop-color="#333649"/>
<stop offset="1" stop-color="#252632" stop-opacity="0"/>
</linearGradient>
<linearGradient id="paint4_linear_3407_28420" x1="409.295" y1="149.758" x2="409.295" y2="191.632" gradientUnits="userSpaceOnUse">
<stop stop-color="#F9AA4B"/>
<stop offset="1" stop-color="#F7931A"/>
</linearGradient>
<clipPath id="clip0_3407_28420">
<rect width="57.5482" height="57.5482" fill="white" transform="translate(123.881 436.415) rotate(-23.3151)"/>
</clipPath>
<clipPath id="clip1_3407_28420">
<rect width="30.0056" height="30.0056" fill="white" transform="translate(120.281 172.073) rotate(-23.3151)"/>
</clipPath>
<clipPath id="clip2_3407_28420">
<rect width="30.0056" height="30.0056" fill="white" transform="translate(321.281 79.0728) rotate(-23.3151)"/>
</clipPath>
<clipPath id="clip3_3407_28420">
<rect width="41.8682" height="41.8682" fill="white" transform="translate(388.372 149.767)"/>
</clipPath>
</defs>
</svg>
