<svg width="44" height="44" viewBox="0 0 44 44" fill="none" xmlns="http://www.w3.org/2000/svg">
<g filter="url(#filter0_d_3407_31776)">
<path fill-rule="evenodd" clip-rule="evenodd" d="M18.1086 27.8779C11.0612 27.8779 5.0424 28.9431 5.0424 33.2111C5.0424 37.4773 11.0227 38.5828 18.1086 38.5828C25.1559 38.5828 31.1747 37.5158 31.1747 33.2496C31.1747 28.9834 25.1944 27.8779 18.1086 27.8779Z" stroke="#F27F16" stroke-width="1.5" stroke-linecap="round" stroke-linejoin="round"/>
<path fill-rule="evenodd" clip-rule="evenodd" d="M18.1086 21.7908C22.7579 21.7908 26.4832 18.0637 26.4832 13.4162C26.4832 8.76684 22.7579 5.0415 18.1086 5.0415C13.4611 5.0415 9.7339 8.76684 9.7339 13.4162C9.7339 18.0637 13.4611 21.7908 18.1086 21.7908Z" stroke="#F27F16" stroke-width="1.5" stroke-linecap="round" stroke-linejoin="round"/>
<path d="M35.2075 15.8933V23.245" stroke="#F27F16" stroke-width="1.5" stroke-linecap="round" stroke-linejoin="round"/>
<path d="M38.9583 19.569H31.46" stroke="#F27F16" stroke-width="1.5" stroke-linecap="round" stroke-linejoin="round"/>
</g>
<defs>
<filter id="filter0_d_3407_31776" x="-4" y="-4" width="52" height="52" filterUnits="userSpaceOnUse" color-interpolation-filters="sRGB">
<feFlood flood-opacity="0" result="BackgroundImageFix"/>
<feColorMatrix in="SourceAlpha" type="matrix" values="0 0 0 0 0 0 0 0 0 0 0 0 0 0 0 0 0 0 127 0" result="hardAlpha"/>
<feOffset/>
<feGaussianBlur stdDeviation="2"/>
<feColorMatrix type="matrix" values="0 0 0 0 0.968627 0 0 0 0 0.576471 0 0 0 0 0.101961 0 0 0 1 0"/>
<feBlend mode="normal" in2="BackgroundImageFix" result="effect1_dropShadow_3407_31776"/>
<feBlend mode="normal" in="SourceGraphic" in2="effect1_dropShadow_3407_31776" result="shape"/>
</filter>
</defs>
</svg>
