<svg width="38" height="38" viewBox="0 0 38 38" fill="none" xmlns="http://www.w3.org/2000/svg">
<path d="M27.3425 16.9881C29.8326 16.9881 31.8525 14.9695 31.8525 12.4795C31.8525 9.98947 29.8326 7.97095 27.3425 7.97095" stroke="#BD47FB" stroke-width="1.27146" stroke-linecap="round" stroke-linejoin="round"/>
<path d="M29.4159 21.8877C30.1595 21.939 30.8988 22.0444 31.6267 22.2082C32.6381 22.4062 33.8547 22.8207 34.2877 23.7282C34.5641 24.3094 34.5641 24.986 34.2877 25.5686C33.8561 26.476 32.6381 26.8891 31.6267 27.0971" stroke="#BD47FB" stroke-width="1.27146" stroke-linecap="round" stroke-linejoin="round"/>
<path d="M9.77468 16.9881C7.28465 16.9881 5.2647 14.9695 5.2647 12.4795C5.2647 9.98947 7.28465 7.97095 9.77468 7.97095" stroke="#BD47FB" stroke-width="1.27146" stroke-linecap="round" stroke-linejoin="round"/>
<path d="M7.70132 21.8877C6.95773 21.939 6.21841 22.0444 5.49049 22.2082C4.47909 22.4062 3.26256 22.8207 2.83093 23.7282C2.55316 24.3094 2.55316 24.986 2.83093 25.5686C3.26114 26.476 4.47909 26.8891 5.49049 27.0971" stroke="#BD47FB" stroke-width="1.27146" stroke-linecap="round" stroke-linejoin="round"/>
<path fill-rule="evenodd" clip-rule="evenodd" d="M18.5513 22.8586C23.5969 22.8586 27.9075 23.6222 27.9075 26.6777C27.9075 29.7319 23.6254 30.5239 18.5513 30.5239C13.5043 30.5239 9.19519 29.7604 9.19519 26.7048C9.19519 23.6492 13.4773 22.8586 18.5513 22.8586Z" stroke="#BD47FB" stroke-width="1.27146" stroke-linecap="round" stroke-linejoin="round"/>
<path fill-rule="evenodd" clip-rule="evenodd" d="M18.5513 18.5002C15.2237 18.5002 12.5556 15.8321 12.5556 12.5031C12.5556 9.17542 15.2237 6.50732 18.5513 6.50732C21.879 6.50732 24.5471 9.17542 24.5471 12.5031C24.5471 15.8321 21.879 18.5002 18.5513 18.5002Z" stroke="#BD47FB" stroke-width="1.27146" stroke-linecap="round" stroke-linejoin="round"/>
</svg>
