<svg width="25" height="32" viewBox="0 0 25 32" fill="none" xmlns="http://www.w3.org/2000/svg">
<g clip-path="url(#clip0_3407_31752)">
<path fill-rule="evenodd" clip-rule="evenodd" d="M23.3163 4.96245C23.9954 5.20021 24.4492 5.84046 24.4492 6.55997V17.0852C24.4492 20.027 23.38 22.8351 21.4919 25.0107C20.5424 26.1063 19.3412 26.9594 18.0653 27.6494L12.5362 30.6362L6.9977 27.6478C5.72031 26.9578 4.51751 26.1062 3.56646 25.0091C1.67679 22.8335 0.604525 20.0239 0.604525 17.079V6.55997C0.604525 5.84046 1.05829 5.20021 1.73739 4.96245L11.9659 1.36803C12.3295 1.2406 12.7258 1.2406 13.0879 1.36803L23.3163 4.96245Z" stroke="#11CABE" stroke-width="1.27146" stroke-linecap="round" stroke-linejoin="round"/>
<path d="M8.48722 15.5203L11.4274 18.4621L17.4849 12.4045" stroke="#11CABE" stroke-width="1.27146" stroke-linecap="round" stroke-linejoin="round"/>
</g>
<defs>
<clipPath id="clip0_3407_31752">
<rect width="25" height="32" fill="white"/>
</clipPath>
</defs>
</svg>
