<svg width="206" height="206" viewBox="0 0 206 206" fill="none" xmlns="http://www.w3.org/2000/svg">
<g clip-path="url(#clip0_3411_31832)">
<path d="M29.5332 102.551C29.5332 95.9048 29.5332 89.2595 29.5332 82.6131C29.5332 82.3722 29.527 82.1312 29.5352 81.8902C29.5714 80.8693 29.8817 80.5715 30.9295 80.5477C31.1705 80.5425 31.4115 80.5466 31.6524 80.5466C44.8759 80.5466 58.0993 80.5466 71.3227 80.5466C71.5978 80.5466 71.874 80.5394 72.1491 80.5487C73.112 80.5818 73.412 80.8879 73.4533 81.8767C73.4616 82.0826 73.4554 82.2894 73.4554 82.4963C73.4554 95.8231 73.4554 109.15 73.4554 122.476C73.4554 124.302 73.3282 124.434 71.542 124.434C58.181 124.434 44.82 124.434 31.459 124.434C29.6604 124.434 29.5342 124.304 29.5342 122.488C29.5342 115.842 29.5342 109.197 29.5342 102.55L29.5332 102.551ZM58.8202 102.571C58.8202 100.577 58.8285 98.5826 58.8171 96.5885C58.8109 95.4797 58.5233 95.1974 57.397 95.1953C53.4429 95.1881 49.4888 95.187 45.5347 95.1963C44.4735 95.1984 44.1829 95.487 44.1808 96.5451C44.1715 100.499 44.1715 104.453 44.1808 108.407C44.1829 109.505 44.4921 109.821 45.5957 109.824C49.5157 109.836 53.4357 109.836 57.3546 109.824C58.5151 109.821 58.8129 109.511 58.8192 108.346C58.8295 106.42 58.8223 104.496 58.8212 102.57L58.8202 102.571Z" fill="#CFCFCF"/>
<path d="M95.3962 109.811C95.3962 110.338 95.3962 110.71 95.3962 111.084C95.3962 114.941 95.3962 118.798 95.3962 122.654C95.3962 122.93 95.4159 123.209 95.3766 123.48C95.2959 124.044 94.998 124.318 94.424 124.384C94.2203 124.408 94.0113 124.397 93.8045 124.397C89.9817 124.397 86.159 124.397 82.3373 124.397C82.0963 124.397 81.8543 124.399 81.6153 124.374C81.1427 124.324 80.8655 124.031 80.79 123.582C80.7383 123.28 80.7558 122.965 80.7558 122.655C80.7548 109.225 80.7548 95.7939 80.7548 82.3636C80.7548 82.1568 80.7476 81.9499 80.7579 81.7441C80.8034 80.8991 81.1137 80.5588 81.9732 80.5557C86.0369 80.5412 90.1007 80.5402 94.1644 80.5557C95.0839 80.5588 95.3911 80.9249 95.3931 81.9447C95.4014 85.9392 95.3973 89.9346 95.3973 93.9291C95.3973 94.3014 95.3973 94.6748 95.3973 95.1837C95.8555 95.1837 96.2226 95.1837 96.5888 95.1837C100.446 95.1837 104.303 95.1837 108.159 95.1837C108.47 95.1837 108.78 95.1785 109.088 95.2013C109.608 95.2385 109.903 95.555 109.988 96.0452C110.041 96.3472 110.028 96.6627 110.028 96.9709C110.03 100.656 110.03 104.34 110.029 108.025C110.029 108.266 110.043 108.509 110.016 108.748C109.936 109.438 109.654 109.723 108.965 109.798C108.692 109.828 108.415 109.812 108.14 109.813C104.317 109.813 100.494 109.813 96.6726 109.813C96.2982 109.813 95.9237 109.813 95.3973 109.813L95.3962 109.811Z" fill="#CFCFCF"/>
<path d="M139.285 80.5464C141.245 80.5464 143.205 80.5392 145.165 80.5495C146.316 80.5557 146.619 80.8577 146.621 82.0306C146.629 85.9165 146.629 89.8013 146.621 93.6871C146.619 94.8993 146.316 95.1868 145.078 95.1889C141.227 95.194 137.375 95.194 133.525 95.1889C132.258 95.1868 131.989 94.9293 131.987 93.7036C131.981 89.8178 131.981 85.933 131.987 82.0472C131.989 80.7998 132.242 80.5526 133.508 80.5485C135.434 80.5412 137.359 80.5464 139.285 80.5464V80.5464Z" fill="#CFCFCF"/>
<path d="M175.849 87.8753C175.849 89.8383 175.856 91.8014 175.846 93.7645C175.839 94.9074 175.576 95.1846 174.457 95.1867C170.531 95.196 166.605 95.1949 162.68 95.1867C161.548 95.1846 161.245 94.9033 161.242 93.7976C161.23 89.8373 161.23 85.877 161.242 81.9167C161.245 80.8452 161.542 80.5525 162.593 80.5494C166.553 80.539 170.514 80.5401 174.474 80.5494C175.588 80.5525 175.84 80.8255 175.846 81.985C175.855 83.948 175.848 85.9111 175.848 87.8742L175.849 87.8753Z" fill="#CFCFCF"/>
<path d="M146.633 102.5C146.633 100.537 146.625 98.5751 146.636 96.6121C146.642 95.435 146.866 95.1982 148.016 95.1951C151.975 95.1868 155.935 95.1858 159.894 95.1951C160.954 95.1971 161.237 95.4764 161.241 96.5572C161.253 100.517 161.254 104.477 161.241 108.436C161.238 109.531 160.928 109.821 159.794 109.824C155.869 109.833 151.944 109.834 148.019 109.823C146.909 109.82 146.641 109.526 146.636 108.387C146.626 106.425 146.634 104.462 146.634 102.499L146.633 102.5Z" fill="#CFCFCF"/>
<path d="M117.383 95.1906C115.42 95.1906 113.458 95.1968 111.495 95.1885C110.29 95.1833 110.037 94.9361 110.034 93.7312C110.026 89.806 110.024 85.8809 110.034 81.9558C110.037 80.8118 110.298 80.5533 111.438 80.5502C115.363 80.5419 119.289 80.5419 123.214 80.5502C124.359 80.5522 124.624 80.8087 124.627 81.9516C124.637 85.9109 124.638 89.8712 124.626 93.8305C124.622 94.9041 124.338 95.1792 123.271 95.1874C121.309 95.2009 119.346 95.1916 117.382 95.1916L117.383 95.1906Z" fill="#CFCFCF"/>
<path d="M139.224 124.435C137.433 124.435 135.643 124.435 133.853 124.435C133.578 124.435 133.3 124.447 133.027 124.42C132.32 124.351 132.054 124.08 131.993 123.382C131.975 123.177 131.986 122.969 131.986 122.762C131.986 119.01 131.986 115.256 131.986 111.504C131.986 111.229 131.975 110.951 132.01 110.68C132.07 110.219 132.343 109.931 132.807 109.861C133.044 109.826 133.288 109.83 133.528 109.83C137.384 109.828 141.24 109.829 145.096 109.83C145.268 109.83 145.442 109.823 145.613 109.843C146.24 109.913 146.524 110.186 146.608 110.821C146.639 111.059 146.624 111.302 146.624 111.543C146.624 115.261 146.624 118.98 146.624 122.698C146.624 122.87 146.631 123.042 146.62 123.214C146.565 124.09 146.287 124.374 145.419 124.428C145.179 124.444 144.937 124.435 144.696 124.435C142.872 124.435 141.047 124.435 139.222 124.435H139.224Z" fill="#CFCFCF"/>
<path d="M175.848 117.118C175.848 119.08 175.855 121.041 175.846 123.003C175.841 124.173 175.611 124.426 174.47 124.43C170.512 124.441 166.555 124.442 162.597 124.43C161.522 124.427 161.246 124.15 161.242 123.074C161.228 119.115 161.229 115.158 161.242 111.2C161.245 110.108 161.514 109.839 162.58 109.836C166.572 109.825 170.565 109.824 174.557 109.836C175.594 109.839 175.836 110.089 175.844 111.13C175.858 113.126 175.848 115.122 175.848 117.118V117.118Z" fill="#CFCFCF"/>
<path d="M117.363 109.829C119.29 109.829 121.216 109.823 123.143 109.831C124.398 109.836 124.624 110.043 124.628 111.25C124.637 115.172 124.637 119.095 124.628 123.017C124.624 124.177 124.382 124.425 123.231 124.428C119.309 124.439 115.386 124.439 111.463 124.428C110.257 124.425 110.036 124.189 110.034 122.949C110.026 119.061 110.026 115.173 110.034 111.284C110.036 110.045 110.247 109.836 111.48 109.83C113.441 109.821 115.402 109.828 117.364 109.828L117.363 109.829Z" fill="#CFCFCF"/>
</g>
<defs>
<clipPath id="clip0_3411_31832">
<rect width="146.32" height="43.8943" fill="white" transform="translate(29.5311 80.5435)"/>
</clipPath>
</defs>
</svg>
