<svg width="24" height="25" viewBox="0 0 24 25" fill="none" xmlns="http://www.w3.org/2000/svg">
<path d="M23.641 15.4029C22.0383 21.8315 15.5271 25.7438 9.09772 24.1407C2.67102 22.5381 -1.24132 16.0265 0.362068 9.59837C1.96405 3.16903 8.47522 -0.743606 14.9026 0.859081C21.3316 2.46177 25.2437 8.97405 23.6408 15.403L23.6409 15.4029H23.641Z" fill="#F7931A"/>
<path fill-rule="evenodd" clip-rule="evenodd" d="M17.2928 10.7903C17.5316 9.1934 16.3158 8.33498 14.6533 7.76233L15.1926 5.59914L13.8758 5.27103L13.3508 7.37726C13.0046 7.29092 12.6491 7.20957 12.2958 7.12892L12.8246 5.00878L11.5086 4.68066L10.969 6.84315C10.6825 6.77793 10.4012 6.71347 10.1282 6.64554L10.1297 6.63874L8.3138 6.18528L7.96351 7.59171C7.96351 7.59171 8.94047 7.81565 8.91988 7.82944C9.45311 7.96252 9.54954 8.31551 9.53353 8.59529L8.91918 11.0597C8.95589 11.069 9.00352 11.0825 9.05608 11.1036L9.01781 11.0941L9.01777 11.094C8.9853 11.0859 8.95154 11.0775 8.91689 11.0692L8.05578 14.5214C7.99061 14.6834 7.8252 14.9266 7.45239 14.8342C7.46559 14.8534 6.49532 14.5954 6.49532 14.5954L5.84155 16.1027L7.55516 16.5299C7.7428 16.577 7.92822 16.6253 8.11177 16.6731L8.1118 16.6731C8.24007 16.7066 8.36743 16.7398 8.49399 16.7721L7.94908 18.9601L9.26436 19.2883L9.80399 17.1235C10.1633 17.221 10.512 17.311 10.8534 17.3958L10.3156 19.5504L11.6324 19.8785L12.1773 17.6946C14.4227 18.1196 16.1111 17.9482 16.8218 15.9172C17.3944 14.2821 16.7932 13.3389 15.6119 12.7238C16.4723 12.5254 17.1204 11.9595 17.2932 10.7905L17.2928 10.7902L17.2928 10.7903ZM14.2842 15.0091C13.9108 16.5094 11.5625 15.8891 10.4881 15.6054C10.3915 15.5798 10.3051 15.557 10.2315 15.5387L10.9546 12.64C11.0443 12.6624 11.154 12.687 11.2783 12.7149L11.2784 12.7149C12.3897 12.9644 14.6667 13.4754 14.2842 15.0091H14.2842ZM11.5013 11.3696C12.397 11.6087 14.3511 12.1302 14.6914 10.7666H14.6915C15.039 9.3721 13.14 8.95166 12.2125 8.74631C12.1082 8.72321 12.0161 8.70283 11.941 8.6841L11.2854 11.3131C11.3473 11.3285 11.4199 11.3479 11.5013 11.3696Z" fill="white"/>
</svg>
