<svg width="24" height="25" viewBox="0 0 24 25" fill="none" xmlns="http://www.w3.org/2000/svg">
<g clip-path="url(#clip0_3350_738)">
<path d="M23.9785 12.496C23.9785 19.0906 18.6328 24.4363 12.0382 24.4363C5.44381 24.4363 0.0979004 19.0906 0.0979004 12.496C0.0979004 5.90146 5.44381 0.555664 12.0382 0.555664C18.6328 0.555664 23.9785 5.90146 23.9785 12.496Z" fill="#1BA27A"/>
<path d="M17.6422 6.57715H6.33594V9.3067H10.6243V13.3186H13.3538V9.3067H17.6422V6.57715Z" fill="white"/>
<path d="M12.0149 13.7451C8.46744 13.7451 5.59138 13.1837 5.59138 12.491C5.59138 11.7985 8.46732 11.2369 12.0149 11.2369C15.5624 11.2369 18.4383 11.7985 18.4383 12.491C18.4383 13.1837 15.5624 13.7451 12.0149 13.7451ZM19.2274 12.7001C19.2274 11.8069 15.9983 11.083 12.0149 11.083C8.03162 11.083 4.80225 11.8069 4.80225 12.7001C4.80225 13.4866 7.30625 14.1419 10.6243 14.2871V20.0464H13.3536V14.2893C16.6973 14.1487 19.2274 13.4906 19.2274 12.7001Z" fill="white"/>
</g>
<defs>
<clipPath id="clip0_3350_738">
<rect width="24" height="24" fill="white" transform="translate(0 0.5)"/>
</clipPath>
</defs>
</svg>
